<svg xmlns="http://www.w3.org/2000/svg" xmlns:xlink="http://www.w3.org/1999/xlink" width="500" zoomAndPan="magnify" viewBox="0 0 375 374.999991" height="500" preserveAspectRatio="xMidYMid meet" version="1.0"><defs><g/><clipPath id="d849557bbf"><path d="M 0.285156 206.175781 L 375 206.175781 L 375 249.964844 L 0.285156 249.964844 Z M 0.285156 206.175781 " clip-rule="nonzero"/></clipPath></defs><rect x="-37.5" width="450" fill="#ffffff" y="-37.499999" height="449.999989" fill-opacity="1"/><rect x="-37.5" width="450" fill="#ffffff" y="-37.499999" height="449.999989" fill-opacity="1"/><g fill="#3b3937" fill-opacity="1"><g transform="translate(169.080344, 292.107331)"><g><path d="M 7.515625 0 L 7.515625 -2.140625 L 12.03125 -2.140625 C 17.039062 -2.140625 20.941406 -3.285156 23.734375 -5.578125 C 26.523438 -7.867188 27.921875 -11.734375 27.921875 -17.171875 L 27.921875 -137 C 27.921875 -142.007812 26.523438 -145.625 23.734375 -147.84375 C 20.941406 -150.0625 17.039062 -151.171875 12.03125 -151.171875 L 7.515625 -151.171875 L 7.515625 -153.3125 L 74.734375 -153.3125 C 97.347656 -153.3125 114.953125 -146.765625 127.546875 -133.671875 C 140.148438 -120.578125 146.453125 -101.859375 146.453125 -77.515625 C 146.453125 -61.910156 143.765625 -48.273438 138.390625 -36.609375 C 133.023438 -24.941406 125.007812 -15.921875 114.34375 -9.546875 C 103.675781 -3.179688 90.472656 0 74.734375 0 Z M 52.828125 -2.140625 L 69.78125 -2.140625 C 87.101562 -2.140625 99.664062 -8.046875 107.46875 -19.859375 C 115.269531 -31.671875 119.171875 -50.890625 119.171875 -77.515625 C 119.171875 -103.429688 115.304688 -122.1875 107.578125 -133.78125 C 99.847656 -145.375 87.320312 -151.171875 70 -151.171875 L 52.828125 -151.171875 Z M 52.828125 -2.140625 "/></g></g></g><g fill="#3b3937" fill-opacity="1"><g transform="translate(51.390657, 225.456487)"><g><path d="M 7.515625 0 L 7.515625 -2.140625 L 12.03125 -2.140625 C 17.039062 -2.140625 20.941406 -3.285156 23.734375 -5.578125 C 26.523438 -7.867188 27.921875 -11.664062 27.921875 -16.96875 L 27.921875 -137 C 27.921875 -142.007812 26.523438 -145.625 23.734375 -147.84375 C 20.941406 -150.0625 17.039062 -151.171875 12.03125 -151.171875 L 7.515625 -151.171875 L 7.515625 -153.3125 L 68.5 -153.3125 C 87.539062 -153.3125 101.675781 -149.875 110.90625 -143 C 120.144531 -136.132812 124.765625 -126.257812 124.765625 -113.375 C 124.765625 -105.21875 123.148438 -98.488281 119.921875 -93.1875 C 116.703125 -87.894531 112.515625 -83.640625 107.359375 -80.421875 C 102.210938 -77.203125 96.847656 -74.800781 91.265625 -73.21875 L 119.609375 -27.703125 C 124.046875 -20.679688 127.695312 -15.347656 130.5625 -11.703125 C 133.425781 -8.054688 135.929688 -5.550781 138.078125 -4.1875 C 140.222656 -2.820312 142.367188 -2.140625 144.515625 -2.140625 L 145.15625 -2.140625 L 145.15625 0 L 140.859375 0 C 131.984375 0 124.96875 -0.460938 119.8125 -1.390625 C 114.664062 -2.328125 110.445312 -4.191406 107.15625 -6.984375 C 103.863281 -9.773438 100.5 -13.960938 97.0625 -19.546875 L 65.5 -71.5 L 52.828125 -71.5 L 52.828125 -16.96875 C 52.828125 -11.664062 54.222656 -7.867188 57.015625 -5.578125 C 59.804688 -3.285156 63.707031 -2.140625 68.71875 -2.140625 L 73.21875 -2.140625 L 73.21875 0 Z M 52.828125 -73.65625 L 67.21875 -73.65625 C 78.238281 -73.65625 86.144531 -76.625 90.9375 -82.5625 C 95.738281 -88.507812 98.140625 -98.28125 98.140625 -111.875 C 98.140625 -125.757812 95.703125 -135.78125 90.828125 -141.9375 C 85.960938 -148.09375 77.945312 -151.171875 66.78125 -151.171875 L 52.828125 -151.171875 Z M 52.828125 -73.65625 "/></g></g></g><g fill="#3b3937" fill-opacity="1"><g transform="translate(39.240222, 258.308124)"><g><path d="M 5.390625 -3.03125 C 5.390625 -2.59375 5.304688 -2.191406 5.140625 -1.828125 C 4.972656 -1.453125 4.753906 -1.128906 4.484375 -0.859375 C 4.203125 -0.585938 3.867188 -0.378906 3.484375 -0.234375 C 3.097656 -0.078125 2.691406 0 2.265625 0 L 0.671875 0 L 0.671875 -6.078125 L 2.265625 -6.078125 C 2.691406 -6.078125 3.097656 -6.003906 3.484375 -5.859375 C 3.867188 -5.703125 4.203125 -5.488281 4.484375 -5.21875 C 4.753906 -4.945312 4.972656 -4.628906 5.140625 -4.265625 C 5.304688 -3.890625 5.390625 -3.476562 5.390625 -3.03125 Z M 4.78125 -3.03125 C 4.78125 -3.726562 4.535156 -4.304688 4.046875 -4.765625 C 3.566406 -5.222656 2.976562 -5.453125 2.28125 -5.453125 L 1.296875 -5.453125 L 1.296875 -0.625 L 2.28125 -0.625 C 2.976562 -0.625 3.566406 -0.851562 4.046875 -1.3125 C 4.535156 -1.769531 4.78125 -2.34375 4.78125 -3.03125 Z M 4.78125 -3.03125 "/></g></g></g><g fill="#3b3937" fill-opacity="1"><g transform="translate(51.896896, 258.308124)"><g><path d="M 4.28125 0 L 0.671875 0 L 0.671875 -6.078125 L 4.28125 -6.078125 L 4.28125 -5.5 L 1.296875 -5.5 L 1.296875 -3.328125 L 4.1875 -3.328125 L 4.1875 -2.75 L 1.296875 -2.75 L 1.296875 -0.578125 L 4.28125 -0.578125 Z M 4.28125 0 "/></g></g></g><g fill="#3b3937" fill-opacity="1"><g transform="translate(63.713353, 258.308124)"><g><path d="M 2.359375 -2.875 C 1.117188 -3.15625 0.5 -3.679688 0.5 -4.453125 C 0.5 -5.023438 0.695312 -5.457031 1.09375 -5.75 C 1.5 -6.03125 1.96875 -6.171875 2.5 -6.171875 C 3.6875 -6.171875 4.390625 -5.726562 4.609375 -4.84375 L 3.9375 -4.84375 C 3.8125 -5.363281 3.332031 -5.625 2.5 -5.625 C 1.914062 -5.625 1.507812 -5.453125 1.28125 -5.109375 C 1.1875 -4.984375 1.140625 -4.820312 1.140625 -4.625 C 1.140625 -4.25 1.34375 -3.957031 1.75 -3.75 C 1.9375 -3.65625 2.34375 -3.523438 2.96875 -3.359375 C 3.582031 -3.203125 4.03125 -3.023438 4.3125 -2.828125 C 4.695312 -2.546875 4.890625 -2.160156 4.890625 -1.671875 C 4.890625 -1.054688 4.648438 -0.59375 4.171875 -0.28125 C 3.765625 -0.0195312 3.265625 0.109375 2.671875 0.109375 C 1.328125 0.109375 0.546875 -0.398438 0.328125 -1.421875 L 1.078125 -1.421875 C 1.191406 -0.773438 1.722656 -0.453125 2.671875 -0.453125 C 3.347656 -0.453125 3.820312 -0.640625 4.09375 -1.015625 C 4.195312 -1.171875 4.25 -1.375 4.25 -1.625 C 4.25 -1.875 4.148438 -2.082031 3.953125 -2.25 C 3.679688 -2.46875 3.148438 -2.675781 2.359375 -2.875 Z M 2.359375 -2.875 "/></g></g></g><g fill="#3b3937" fill-opacity="1"><g transform="translate(75.70858, 258.308124)"><g><path d="M 1.65625 -2.234375 L 3.859375 -2.234375 L 2.765625 -5.03125 Z M 5.421875 0 L 4.75 0 L 4.09375 -1.65625 L 1.421875 -1.65625 L 0.765625 0 L 0.09375 0 L 2.765625 -6.5 Z M 5.421875 0 "/></g></g></g><g fill="#3b3937" fill-opacity="1"><g transform="translate(88.088159, 258.308124)"><g><path d="M 1.296875 -3 L 2.703125 -3 C 3.054688 -3 3.347656 -3.117188 3.578125 -3.359375 C 3.804688 -3.609375 3.921875 -3.910156 3.921875 -4.265625 C 3.921875 -4.617188 3.8125 -4.910156 3.59375 -5.140625 C 3.375 -5.367188 3.078125 -5.484375 2.703125 -5.484375 L 1.296875 -5.484375 Z M 4.546875 -4.25 C 4.546875 -3.71875 4.359375 -3.273438 3.984375 -2.921875 C 3.648438 -2.609375 3.25 -2.4375 2.78125 -2.40625 L 4.640625 0 L 3.8125 0 L 2.03125 -2.40625 L 1.296875 -2.40625 L 1.296875 0 L 0.671875 0 L 0.671875 -6.078125 L 2.625 -6.078125 C 3.164062 -6.078125 3.617188 -5.90625 3.984375 -5.5625 C 4.359375 -5.207031 4.546875 -4.769531 4.546875 -4.25 Z M 4.546875 -4.25 "/></g></g></g><g fill="#3b3937" fill-opacity="1"><g transform="translate(99.81524, 258.308124)"><g><path d="M 1.296875 -3 L 2.703125 -3 C 3.054688 -3 3.347656 -3.117188 3.578125 -3.359375 C 3.804688 -3.609375 3.921875 -3.910156 3.921875 -4.265625 C 3.921875 -4.617188 3.8125 -4.910156 3.59375 -5.140625 C 3.375 -5.367188 3.078125 -5.484375 2.703125 -5.484375 L 1.296875 -5.484375 Z M 4.546875 -4.25 C 4.546875 -3.71875 4.359375 -3.273438 3.984375 -2.921875 C 3.648438 -2.609375 3.25 -2.4375 2.78125 -2.40625 L 4.640625 0 L 3.8125 0 L 2.03125 -2.40625 L 1.296875 -2.40625 L 1.296875 0 L 0.671875 0 L 0.671875 -6.078125 L 2.625 -6.078125 C 3.164062 -6.078125 3.617188 -5.90625 3.984375 -5.5625 C 4.359375 -5.207031 4.546875 -4.769531 4.546875 -4.25 Z M 4.546875 -4.25 "/></g></g></g><g fill="#3b3937" fill-opacity="1"><g transform="translate(111.542321, 258.308124)"><g><path d="M 6.03125 -3.0625 C 6.03125 -3.738281 5.785156 -4.320312 5.296875 -4.8125 C 4.804688 -5.300781 4.210938 -5.546875 3.515625 -5.546875 C 2.835938 -5.546875 2.253906 -5.300781 1.765625 -4.8125 C 1.273438 -4.320312 1.03125 -3.738281 1.03125 -3.0625 C 1.03125 -2.363281 1.273438 -1.769531 1.765625 -1.28125 C 2.253906 -0.789062 2.835938 -0.546875 3.515625 -0.546875 C 4.210938 -0.546875 4.804688 -0.789062 5.296875 -1.28125 C 5.785156 -1.769531 6.03125 -2.363281 6.03125 -3.0625 Z M 6.65625 -3.0625 C 6.65625 -2.625 6.570312 -2.21875 6.40625 -1.84375 C 6.238281 -1.457031 6.015625 -1.125 5.734375 -0.84375 C 5.453125 -0.5625 5.117188 -0.335938 4.734375 -0.171875 C 4.359375 -0.00390625 3.953125 0.078125 3.515625 0.078125 C 3.085938 0.078125 2.6875 -0.00390625 2.3125 -0.171875 C 1.9375 -0.335938 1.609375 -0.5625 1.328125 -0.84375 C 1.035156 -1.125 0.8125 -1.457031 0.65625 -1.84375 C 0.488281 -2.21875 0.40625 -2.625 0.40625 -3.0625 C 0.40625 -3.488281 0.488281 -3.890625 0.65625 -4.265625 C 0.8125 -4.648438 1.035156 -4.984375 1.328125 -5.265625 C 1.609375 -5.546875 1.9375 -5.769531 2.3125 -5.9375 C 2.6875 -6.09375 3.085938 -6.171875 3.515625 -6.171875 C 3.953125 -6.171875 4.359375 -6.09375 4.734375 -5.9375 C 5.117188 -5.769531 5.453125 -5.546875 5.734375 -5.265625 C 6.015625 -4.984375 6.238281 -4.648438 6.40625 -4.265625 C 6.570312 -3.890625 6.65625 -3.488281 6.65625 -3.0625 Z M 6.65625 -3.0625 "/></g></g></g><g fill="#3b3937" fill-opacity="1"><g transform="translate(125.459298, 258.308124)"><g><path d="M 1.296875 -0.625 L 3.46875 -0.625 L 3.46875 0 L 0.671875 0 L 0.671875 -6.078125 L 1.296875 -6.078125 Z M 1.296875 -0.625 "/></g></g></g><g fill="#3b3937" fill-opacity="1"><g transform="translate(135.970768, 258.308124)"><g><path d="M 1.296875 -0.625 L 3.46875 -0.625 L 3.46875 0 L 0.671875 0 L 0.671875 -6.078125 L 1.296875 -6.078125 Z M 1.296875 -0.625 "/></g></g></g><g fill="#3b3937" fill-opacity="1"><g transform="translate(146.482237, 258.308124)"><g><path d="M 1.65625 -2.234375 L 3.859375 -2.234375 L 2.765625 -5.03125 Z M 5.421875 0 L 4.75 0 L 4.09375 -1.65625 L 1.421875 -1.65625 L 0.765625 0 L 0.09375 0 L 2.765625 -6.5 Z M 5.421875 0 "/></g></g></g><g fill="#3b3937" fill-opacity="1"><g transform="translate(158.861819, 258.308124)"><g><path d="M 5.390625 -3.03125 C 5.390625 -2.59375 5.304688 -2.191406 5.140625 -1.828125 C 4.972656 -1.453125 4.753906 -1.128906 4.484375 -0.859375 C 4.203125 -0.585938 3.867188 -0.378906 3.484375 -0.234375 C 3.097656 -0.078125 2.691406 0 2.265625 0 L 0.671875 0 L 0.671875 -6.078125 L 2.265625 -6.078125 C 2.691406 -6.078125 3.097656 -6.003906 3.484375 -5.859375 C 3.867188 -5.703125 4.203125 -5.488281 4.484375 -5.21875 C 4.753906 -4.945312 4.972656 -4.628906 5.140625 -4.265625 C 5.304688 -3.890625 5.390625 -3.476562 5.390625 -3.03125 Z M 4.78125 -3.03125 C 4.78125 -3.726562 4.535156 -4.304688 4.046875 -4.765625 C 3.566406 -5.222656 2.976562 -5.453125 2.28125 -5.453125 L 1.296875 -5.453125 L 1.296875 -0.625 L 2.28125 -0.625 C 2.976562 -0.625 3.566406 -0.851562 4.046875 -1.3125 C 4.535156 -1.769531 4.78125 -2.34375 4.78125 -3.03125 Z M 4.78125 -3.03125 "/></g></g></g><g fill="#3b3937" fill-opacity="1"><g transform="translate(171.518495, 258.308124)"><g><path d="M 6.03125 -3.0625 C 6.03125 -3.738281 5.785156 -4.320312 5.296875 -4.8125 C 4.804688 -5.300781 4.210938 -5.546875 3.515625 -5.546875 C 2.835938 -5.546875 2.253906 -5.300781 1.765625 -4.8125 C 1.273438 -4.320312 1.03125 -3.738281 1.03125 -3.0625 C 1.03125 -2.363281 1.273438 -1.769531 1.765625 -1.28125 C 2.253906 -0.789062 2.835938 -0.546875 3.515625 -0.546875 C 4.210938 -0.546875 4.804688 -0.789062 5.296875 -1.28125 C 5.785156 -1.769531 6.03125 -2.363281 6.03125 -3.0625 Z M 6.65625 -3.0625 C 6.65625 -2.625 6.570312 -2.21875 6.40625 -1.84375 C 6.238281 -1.457031 6.015625 -1.125 5.734375 -0.84375 C 5.453125 -0.5625 5.117188 -0.335938 4.734375 -0.171875 C 4.359375 -0.00390625 3.953125 0.078125 3.515625 0.078125 C 3.085938 0.078125 2.6875 -0.00390625 2.3125 -0.171875 C 1.9375 -0.335938 1.609375 -0.5625 1.328125 -0.84375 C 1.035156 -1.125 0.8125 -1.457031 0.65625 -1.84375 C 0.488281 -2.21875 0.40625 -2.625 0.40625 -3.0625 C 0.40625 -3.488281 0.488281 -3.890625 0.65625 -4.265625 C 0.8125 -4.648438 1.035156 -4.984375 1.328125 -5.265625 C 1.609375 -5.546875 1.9375 -5.769531 2.3125 -5.9375 C 2.6875 -6.09375 3.085938 -6.171875 3.515625 -6.171875 C 3.953125 -6.171875 4.359375 -6.09375 4.734375 -5.9375 C 5.117188 -5.769531 5.453125 -5.546875 5.734375 -5.265625 C 6.015625 -4.984375 6.238281 -4.648438 6.40625 -4.265625 C 6.570312 -3.890625 6.65625 -3.488281 6.65625 -3.0625 Z M 6.65625 -3.0625 "/></g></g></g><g fill="#3b3937" fill-opacity="1"><g transform="translate(185.435472, 258.308124)"><g><path d="M 1.296875 -3 L 2.703125 -3 C 3.054688 -3 3.347656 -3.117188 3.578125 -3.359375 C 3.804688 -3.609375 3.921875 -3.910156 3.921875 -4.265625 C 3.921875 -4.617188 3.8125 -4.910156 3.59375 -5.140625 C 3.375 -5.367188 3.078125 -5.484375 2.703125 -5.484375 L 1.296875 -5.484375 Z M 4.546875 -4.25 C 4.546875 -3.71875 4.359375 -3.273438 3.984375 -2.921875 C 3.648438 -2.609375 3.25 -2.4375 2.78125 -2.40625 L 4.640625 0 L 3.8125 0 L 2.03125 -2.40625 L 1.296875 -2.40625 L 1.296875 0 L 0.671875 0 L 0.671875 -6.078125 L 2.625 -6.078125 C 3.164062 -6.078125 3.617188 -5.90625 3.984375 -5.5625 C 4.359375 -5.207031 4.546875 -4.769531 4.546875 -4.25 Z M 4.546875 -4.25 "/></g></g></g><g clip-path="url(#d849557bbf)"><path fill="#ffffff" d="M 0.285156 206.175781 L 375.070312 206.175781 L 375.070312 249.964844 L 0.285156 249.964844 Z M 0.285156 206.175781 " fill-opacity="1" fill-rule="nonzero"/></g><g fill="#600000" fill-opacity="1"><g transform="translate(16.784266, 237.499125)"><g><path d="M 22.015625 -14.203125 C 21.398438 -13.160156 20.617188 -12.21875 19.671875 -11.375 C 18.722656 -10.53125 17.691406 -9.796875 16.578125 -9.171875 C 15.472656 -8.546875 14.363281 -8.039062 13.25 -7.65625 C 12.144531 -7.269531 11.125 -7 10.1875 -6.84375 C 10.0625 -6.832031 9.972656 -6.773438 9.921875 -6.671875 C 9.867188 -6.566406 9.875 -6.457031 9.9375 -6.34375 C 10.320312 -5.726562 10.742188 -5.09375 11.203125 -4.4375 C 11.671875 -3.789062 12.175781 -3.1875 12.71875 -2.625 C 13.257812 -2.070312 13.835938 -1.625 14.453125 -1.28125 C 15.066406 -0.9375 15.71875 -0.765625 16.40625 -0.765625 C 16.5 -0.765625 16.601562 -0.769531 16.71875 -0.78125 C 17.207031 -0.8125 17.640625 -0.9375 18.015625 -1.15625 C 18.398438 -1.375 18.722656 -1.628906 18.984375 -1.921875 C 19.242188 -2.222656 19.453125 -2.515625 19.609375 -2.796875 C 19.765625 -3.085938 19.878906 -3.328125 19.953125 -3.515625 C 20.035156 -3.710938 20.078125 -3.816406 20.078125 -3.828125 C 20.109375 -3.953125 20.179688 -4.046875 20.296875 -4.109375 C 20.421875 -4.179688 20.539062 -4.203125 20.65625 -4.171875 C 20.789062 -4.117188 20.890625 -4.03125 20.953125 -3.90625 C 21.015625 -3.789062 21.03125 -3.675781 21 -3.5625 C 20.988281 -3.53125 20.9375 -3.390625 20.84375 -3.140625 C 20.75 -2.898438 20.601562 -2.601562 20.40625 -2.25 C 20.207031 -1.90625 19.945312 -1.554688 19.625 -1.203125 C 19.300781 -0.847656 18.90625 -0.539062 18.4375 -0.28125 C 17.96875 -0.0195312 17.421875 0.140625 16.796875 0.203125 C 16.660156 0.203125 16.523438 0.203125 16.390625 0.203125 C 15.617188 0.203125 14.898438 0.0390625 14.234375 -0.28125 C 13.578125 -0.613281 12.957031 -1.050781 12.375 -1.59375 C 11.800781 -2.132812 11.269531 -2.734375 10.78125 -3.390625 C 10.289062 -4.046875 9.84375 -4.691406 9.4375 -5.328125 C 9.414062 -5.367188 9.378906 -5.382812 9.328125 -5.375 C 9.273438 -5.375 9.25 -5.347656 9.25 -5.296875 C 9.039062 -4.378906 8.816406 -3.550781 8.578125 -2.8125 C 8.335938 -2.082031 8.0625 -1.484375 7.75 -1.015625 C 7.4375 -0.546875 7.0625 -0.253906 6.625 -0.140625 C 6.4375 -0.0976562 6.273438 -0.140625 6.140625 -0.265625 C 6.003906 -0.398438 5.960938 -0.554688 6.015625 -0.734375 C 6.066406 -0.921875 6.1875 -1.035156 6.375 -1.078125 C 6.601562 -1.140625 6.816406 -1.335938 7.015625 -1.671875 C 7.222656 -2.003906 7.414062 -2.425781 7.59375 -2.9375 C 7.78125 -3.457031 7.945312 -4.035156 8.09375 -4.671875 C 8.25 -5.304688 8.394531 -5.953125 8.53125 -6.609375 C 8.539062 -6.671875 8.535156 -6.707031 8.515625 -6.71875 C 8.492188 -6.726562 8.46875 -6.734375 8.4375 -6.734375 C 8.007812 -6.734375 7.585938 -6.816406 7.171875 -6.984375 C 6.804688 -7.109375 6.535156 -7.34375 6.359375 -7.6875 C 6.179688 -8.03125 6.15625 -8.390625 6.28125 -8.765625 C 6.300781 -8.835938 6.335938 -8.941406 6.390625 -9.078125 C 6.441406 -9.222656 6.519531 -9.359375 6.625 -9.484375 C 6.738281 -9.609375 6.890625 -9.679688 7.078125 -9.703125 C 7.359375 -9.734375 7.617188 -9.628906 7.859375 -9.390625 C 8.109375 -9.160156 8.390625 -8.804688 8.703125 -8.328125 C 8.753906 -8.265625 8.796875 -8.242188 8.828125 -8.265625 C 8.859375 -8.285156 8.882812 -8.320312 8.90625 -8.375 C 9.101562 -9.375 9.300781 -10.316406 9.5 -11.203125 C 9.695312 -12.097656 9.914062 -12.898438 10.15625 -13.609375 C 10.394531 -14.328125 10.671875 -14.910156 10.984375 -15.359375 C 11.304688 -15.816406 11.679688 -16.097656 12.109375 -16.203125 C 12.234375 -16.234375 12.351562 -16.210938 12.46875 -16.140625 C 12.582031 -16.066406 12.65625 -15.96875 12.6875 -15.84375 C 12.71875 -15.707031 12.695312 -15.582031 12.625 -15.46875 C 12.5625 -15.363281 12.460938 -15.289062 12.328125 -15.25 C 12.046875 -15.175781 11.785156 -14.910156 11.546875 -14.453125 C 11.316406 -14.003906 11.097656 -13.425781 10.890625 -12.71875 C 10.691406 -12.019531 10.5 -11.265625 10.3125 -10.453125 C 10.132812 -9.640625 9.972656 -8.851562 9.828125 -8.09375 C 9.816406 -8.050781 9.8125 -8.023438 9.8125 -8.015625 C 9.8125 -8.003906 9.804688 -7.988281 9.796875 -7.96875 C 9.796875 -7.925781 9.804688 -7.882812 9.828125 -7.84375 C 9.859375 -7.8125 9.882812 -7.796875 9.90625 -7.796875 C 10.582031 -7.910156 11.328125 -8.09375 12.140625 -8.34375 C 12.960938 -8.59375 13.800781 -8.914062 14.65625 -9.3125 C 15.519531 -9.707031 16.359375 -10.171875 17.171875 -10.703125 C 17.992188 -11.234375 18.75 -11.832031 19.4375 -12.5 C 20.132812 -13.164062 20.707031 -13.898438 21.15625 -14.703125 C 22.3125 -16.640625 22.453125 -18.039062 21.578125 -18.90625 C 21.128906 -19.332031 20.46875 -19.628906 19.59375 -19.796875 C 18.71875 -19.960938 17.695312 -20.003906 16.53125 -19.921875 C 15.375 -19.847656 14.144531 -19.65625 12.84375 -19.34375 C 11.550781 -19.039062 10.257812 -18.628906 8.96875 -18.109375 C 7.675781 -17.597656 6.460938 -17 5.328125 -16.3125 C 4.867188 -16.03125 4.367188 -15.6875 3.828125 -15.28125 C 3.296875 -14.875 2.800781 -14.410156 2.34375 -13.890625 C 1.894531 -13.367188 1.5625 -12.8125 1.34375 -12.21875 C 1.132812 -11.632812 1.128906 -11.03125 1.328125 -10.40625 C 1.367188 -10.269531 1.359375 -10.140625 1.296875 -10.015625 C 1.234375 -9.898438 1.132812 -9.828125 1 -9.796875 C 0.875 -9.753906 0.753906 -9.765625 0.640625 -9.828125 C 0.523438 -9.890625 0.441406 -9.984375 0.390625 -10.109375 C 0.0351562 -11.285156 0.238281 -12.476562 1 -13.6875 C 1.757812 -14.894531 3.035156 -16.046875 4.828125 -17.140625 C 5.753906 -17.703125 6.757812 -18.21875 7.84375 -18.6875 C 8.9375 -19.15625 10.050781 -19.554688 11.1875 -19.890625 C 12.332031 -20.222656 13.460938 -20.476562 14.578125 -20.65625 C 15.691406 -20.832031 16.742188 -20.921875 17.734375 -20.921875 C 18.734375 -20.921875 19.617188 -20.8125 20.390625 -20.59375 C 21.160156 -20.382812 21.78125 -20.050781 22.25 -19.59375 C 22.539062 -19.320312 22.769531 -18.953125 22.9375 -18.484375 C 23.113281 -18.015625 23.144531 -17.429688 23.03125 -16.734375 C 22.914062 -16.035156 22.578125 -15.191406 22.015625 -14.203125 Z M 7.546875 -7.875 C 7.609375 -7.84375 7.679688 -7.820312 7.765625 -7.8125 C 7.785156 -7.800781 7.8125 -7.800781 7.84375 -7.8125 C 7.875 -7.820312 7.867188 -7.851562 7.828125 -7.90625 C 7.671875 -8.144531 7.503906 -8.367188 7.328125 -8.578125 C 7.285156 -8.640625 7.25 -8.617188 7.21875 -8.515625 C 7.164062 -8.378906 7.160156 -8.257812 7.203125 -8.15625 C 7.242188 -8.050781 7.359375 -7.957031 7.546875 -7.875 Z M 7.546875 -7.875 "/></g></g></g><g fill="#600000" fill-opacity="1"><g transform="translate(38.789195, 237.499125)"><g><path d="M 15.53125 -4.765625 C 15.625 -4.660156 15.660156 -4.539062 15.640625 -4.40625 C 15.628906 -4.269531 15.566406 -4.160156 15.453125 -4.078125 C 15.410156 -4.035156 15.191406 -3.867188 14.796875 -3.578125 C 14.398438 -3.285156 13.867188 -2.9375 13.203125 -2.53125 C 12.535156 -2.132812 11.765625 -1.738281 10.890625 -1.34375 C 10.015625 -0.957031 9.078125 -0.632812 8.078125 -0.375 C 7.078125 -0.113281 6.046875 0.015625 4.984375 0.015625 C 3.722656 0.0234375 2.515625 -0.203125 1.359375 -0.671875 C 0.710938 -0.929688 0.257812 -1.234375 0 -1.578125 C -0.257812 -1.921875 -0.40625 -2.257812 -0.4375 -2.59375 C -0.476562 -2.925781 -0.472656 -3.207031 -0.421875 -3.4375 C -0.316406 -3.894531 -0.101562 -4.335938 0.21875 -4.765625 C 0.539062 -5.191406 0.914062 -5.570312 1.34375 -5.90625 C 1.78125 -6.25 2.222656 -6.515625 2.671875 -6.703125 C 3.117188 -6.890625 3.53125 -6.96875 3.90625 -6.9375 C 4.238281 -6.9375 4.523438 -6.816406 4.765625 -6.578125 C 5.003906 -6.347656 5.140625 -6.0625 5.171875 -5.71875 C 5.179688 -5.519531 5.128906 -5.273438 5.015625 -4.984375 C 4.898438 -4.703125 4.617188 -4.410156 4.171875 -4.109375 C 3.117188 -3.453125 1.96875 -3.160156 0.71875 -3.234375 C 0.65625 -3.253906 0.601562 -3.242188 0.5625 -3.203125 C 0.507812 -3.160156 0.488281 -3.113281 0.5 -3.0625 C 0.488281 -2.945312 0.5 -2.800781 0.53125 -2.625 C 0.570312 -2.457031 0.675781 -2.28125 0.84375 -2.09375 C 1.019531 -1.90625 1.3125 -1.734375 1.71875 -1.578125 C 2.5625 -1.210938 3.421875 -1.003906 4.296875 -0.953125 C 5.179688 -0.910156 6.050781 -0.96875 6.90625 -1.125 C 7.757812 -1.289062 8.578125 -1.515625 9.359375 -1.796875 C 10.140625 -2.085938 10.859375 -2.40625 11.515625 -2.75 C 12.179688 -3.101562 12.757812 -3.429688 13.25 -3.734375 C 13.75 -4.046875 14.140625 -4.304688 14.421875 -4.515625 C 14.703125 -4.722656 14.84375 -4.828125 14.84375 -4.828125 C 14.957031 -4.921875 15.082031 -4.957031 15.21875 -4.9375 C 15.34375 -4.925781 15.445312 -4.867188 15.53125 -4.765625 Z M 1.140625 -4.375 C 1.003906 -4.1875 1.019531 -4.082031 1.1875 -4.0625 C 1.351562 -4.039062 1.59375 -4.078125 1.90625 -4.171875 C 2.21875 -4.265625 2.535156 -4.378906 2.859375 -4.515625 C 3.179688 -4.660156 3.441406 -4.796875 3.640625 -4.921875 C 4.023438 -5.179688 4.207031 -5.414062 4.1875 -5.625 C 4.175781 -5.757812 4.140625 -5.847656 4.078125 -5.890625 C 4.023438 -5.941406 3.945312 -5.972656 3.84375 -5.984375 C 3.457031 -6.003906 3.003906 -5.863281 2.484375 -5.5625 C 1.960938 -5.257812 1.515625 -4.863281 1.140625 -4.375 Z M 1.140625 -4.375 "/></g></g></g><g fill="#600000" fill-opacity="1"><g transform="translate(53.613377, 237.499125)"><g><path d="M 14.046875 -4.640625 C 14.148438 -4.546875 14.203125 -4.429688 14.203125 -4.296875 C 14.191406 -4.160156 14.132812 -4.050781 14.03125 -3.96875 C 13.363281 -3.320312 12.644531 -2.84375 11.875 -2.53125 C 11.101562 -2.226562 10.3125 -2.054688 9.5 -2.015625 C 8.695312 -1.984375 7.894531 -2.050781 7.09375 -2.21875 C 6.300781 -2.382812 5.546875 -2.617188 4.828125 -2.921875 C 4.648438 -2.992188 4.46875 -2.988281 4.28125 -2.90625 C 4.09375 -2.820312 3.96875 -2.679688 3.90625 -2.484375 C 3.789062 -2.054688 3.625 -1.660156 3.40625 -1.296875 C 3.1875 -0.878906 2.867188 -0.539062 2.453125 -0.28125 C 2.046875 -0.0195312 1.601562 0.113281 1.125 0.125 C 0.957031 0.125 0.789062 0.113281 0.625 0.09375 L 0.4375 0.015625 C -0.601562 -0.546875 -0.921875 -2.070312 -0.515625 -4.5625 C -0.410156 -5.238281 -0.242188 -5.976562 -0.015625 -6.78125 C 0.210938 -7.582031 0.476562 -8.398438 0.78125 -9.234375 C 1.082031 -10.066406 1.410156 -10.867188 1.765625 -11.640625 C 2.128906 -12.410156 2.503906 -13.109375 2.890625 -13.734375 C 3.273438 -14.359375 3.648438 -14.863281 4.015625 -15.25 C 4.390625 -15.632812 4.742188 -15.851562 5.078125 -15.90625 C 5.335938 -15.976562 5.585938 -15.957031 5.828125 -15.84375 C 6.066406 -15.738281 6.25 -15.566406 6.375 -15.328125 C 6.507812 -15.023438 6.53125 -14.613281 6.4375 -14.09375 C 6.34375 -13.570312 6.160156 -12.976562 5.890625 -12.3125 C 5.628906 -11.65625 5.3125 -10.96875 4.9375 -10.25 C 4.5625 -9.539062 4.15625 -8.828125 3.71875 -8.109375 C 3.289062 -7.398438 2.863281 -6.738281 2.4375 -6.125 C 2.007812 -5.507812 1.613281 -4.972656 1.25 -4.515625 C 0.894531 -4.066406 0.601562 -3.738281 0.375 -3.53125 C 0.363281 -3.519531 0.347656 -3.507812 0.328125 -3.5 C 0.265625 -2.957031 0.273438 -2.414062 0.359375 -1.875 C 0.410156 -1.46875 0.625 -1.1875 1 -1.03125 C 1.382812 -0.882812 1.738281 -0.9375 2.0625 -1.1875 C 2.269531 -1.351562 2.445312 -1.5625 2.59375 -1.8125 C 2.84375 -2.226562 3.003906 -2.679688 3.078125 -3.171875 C 3.117188 -3.578125 2.972656 -3.882812 2.640625 -4.09375 C 2.460938 -4.21875 2.289062 -4.34375 2.125 -4.46875 C 1.976562 -4.570312 1.914062 -4.722656 1.9375 -4.921875 C 1.96875 -5.109375 2.078125 -5.234375 2.265625 -5.296875 C 2.503906 -5.410156 2.753906 -5.4375 3.015625 -5.375 C 3.285156 -5.3125 3.507812 -5.175781 3.6875 -4.96875 C 3.8125 -4.800781 3.90625 -4.617188 3.96875 -4.421875 C 4.632812 -4.035156 5.367188 -3.710938 6.171875 -3.453125 C 6.972656 -3.203125 7.796875 -3.046875 8.640625 -2.984375 C 9.484375 -2.929688 10.3125 -3.03125 11.125 -3.28125 C 11.9375 -3.539062 12.6875 -4.003906 13.375 -4.671875 C 13.46875 -4.753906 13.582031 -4.796875 13.71875 -4.796875 C 13.851562 -4.796875 13.960938 -4.742188 14.046875 -4.640625 Z M 5.21875 -14.9375 C 5.019531 -14.914062 4.773438 -14.726562 4.484375 -14.375 C 4.203125 -14.019531 3.890625 -13.539062 3.546875 -12.9375 C 3.203125 -12.34375 2.859375 -11.664062 2.515625 -10.90625 C 2.171875 -10.15625 1.84375 -9.351562 1.53125 -8.5 C 1.226562 -7.644531 0.972656 -6.789062 0.765625 -5.9375 C 0.734375 -5.851562 0.765625 -5.796875 0.859375 -5.765625 C 0.929688 -5.722656 0.988281 -5.738281 1.03125 -5.8125 C 1.9375 -7.0625 2.765625 -8.351562 3.515625 -9.6875 C 4.148438 -10.8125 4.617188 -11.734375 4.921875 -12.453125 C 5.222656 -13.179688 5.40625 -13.742188 5.46875 -14.140625 C 5.539062 -14.535156 5.546875 -14.789062 5.484375 -14.90625 C 5.484375 -14.914062 5.472656 -14.925781 5.453125 -14.9375 C 5.429688 -14.945312 5.394531 -14.953125 5.34375 -14.953125 C 5.300781 -14.953125 5.257812 -14.945312 5.21875 -14.9375 Z M 5.21875 -14.9375 "/></g></g></g><g fill="#600000" fill-opacity="1"><g transform="translate(66.994009, 237.499125)"><g><path d="M 15.53125 -4.765625 C 15.625 -4.660156 15.660156 -4.539062 15.640625 -4.40625 C 15.628906 -4.269531 15.566406 -4.160156 15.453125 -4.078125 C 15.410156 -4.035156 15.191406 -3.867188 14.796875 -3.578125 C 14.398438 -3.285156 13.867188 -2.9375 13.203125 -2.53125 C 12.535156 -2.132812 11.765625 -1.738281 10.890625 -1.34375 C 10.015625 -0.957031 9.078125 -0.632812 8.078125 -0.375 C 7.078125 -0.113281 6.046875 0.015625 4.984375 0.015625 C 3.722656 0.0234375 2.515625 -0.203125 1.359375 -0.671875 C 0.710938 -0.929688 0.257812 -1.234375 0 -1.578125 C -0.257812 -1.921875 -0.40625 -2.257812 -0.4375 -2.59375 C -0.476562 -2.925781 -0.472656 -3.207031 -0.421875 -3.4375 C -0.316406 -3.894531 -0.101562 -4.335938 0.21875 -4.765625 C 0.539062 -5.191406 0.914062 -5.570312 1.34375 -5.90625 C 1.78125 -6.25 2.222656 -6.515625 2.671875 -6.703125 C 3.117188 -6.890625 3.53125 -6.96875 3.90625 -6.9375 C 4.238281 -6.9375 4.523438 -6.816406 4.765625 -6.578125 C 5.003906 -6.347656 5.140625 -6.0625 5.171875 -5.71875 C 5.179688 -5.519531 5.128906 -5.273438 5.015625 -4.984375 C 4.898438 -4.703125 4.617188 -4.410156 4.171875 -4.109375 C 3.117188 -3.453125 1.96875 -3.160156 0.71875 -3.234375 C 0.65625 -3.253906 0.601562 -3.242188 0.5625 -3.203125 C 0.507812 -3.160156 0.488281 -3.113281 0.5 -3.0625 C 0.488281 -2.945312 0.5 -2.800781 0.53125 -2.625 C 0.570312 -2.457031 0.675781 -2.28125 0.84375 -2.09375 C 1.019531 -1.90625 1.3125 -1.734375 1.71875 -1.578125 C 2.5625 -1.210938 3.421875 -1.003906 4.296875 -0.953125 C 5.179688 -0.910156 6.050781 -0.96875 6.90625 -1.125 C 7.757812 -1.289062 8.578125 -1.515625 9.359375 -1.796875 C 10.140625 -2.085938 10.859375 -2.40625 11.515625 -2.75 C 12.179688 -3.101562 12.757812 -3.429688 13.25 -3.734375 C 13.75 -4.046875 14.140625 -4.304688 14.421875 -4.515625 C 14.703125 -4.722656 14.84375 -4.828125 14.84375 -4.828125 C 14.957031 -4.921875 15.082031 -4.957031 15.21875 -4.9375 C 15.34375 -4.925781 15.445312 -4.867188 15.53125 -4.765625 Z M 1.140625 -4.375 C 1.003906 -4.1875 1.019531 -4.082031 1.1875 -4.0625 C 1.351562 -4.039062 1.59375 -4.078125 1.90625 -4.171875 C 2.21875 -4.265625 2.535156 -4.378906 2.859375 -4.515625 C 3.179688 -4.660156 3.441406 -4.796875 3.640625 -4.921875 C 4.023438 -5.179688 4.207031 -5.414062 4.1875 -5.625 C 4.175781 -5.757812 4.140625 -5.847656 4.078125 -5.890625 C 4.023438 -5.941406 3.945312 -5.972656 3.84375 -5.984375 C 3.457031 -6.003906 3.003906 -5.863281 2.484375 -5.5625 C 1.960938 -5.257812 1.515625 -4.863281 1.140625 -4.375 Z M 1.140625 -4.375 "/></g></g></g><g fill="#600000" fill-opacity="1"><g transform="translate(81.818191, 237.499125)"><g><path d="M 15.609375 -4.625 C 15.703125 -4.53125 15.742188 -4.414062 15.734375 -4.28125 C 15.734375 -4.144531 15.679688 -4.03125 15.578125 -3.9375 C 14.066406 -2.6875 12.382812 -1.71875 10.53125 -1.03125 C 8.6875 -0.351562 6.773438 -0.0078125 4.796875 0 C 3.828125 0 2.867188 -0.0859375 1.921875 -0.265625 C 1.128906 -0.398438 0.539062 -0.609375 0.15625 -0.890625 C -0.21875 -1.171875 -0.46875 -1.46875 -0.59375 -1.78125 C -0.726562 -2.101562 -0.796875 -2.378906 -0.796875 -2.609375 C -0.796875 -3.085938 -0.660156 -3.570312 -0.390625 -4.0625 C -0.117188 -4.550781 0.226562 -5.003906 0.65625 -5.421875 C 1.082031 -5.835938 1.53125 -6.1875 2 -6.46875 C 2.476562 -6.757812 2.914062 -6.941406 3.3125 -7.015625 C 4.0625 -7.222656 4.738281 -7.09375 5.34375 -6.625 C 5.851562 -6.144531 6.109375 -5.550781 6.109375 -4.84375 C 6.097656 -4.707031 6.046875 -4.59375 5.953125 -4.5 C 5.859375 -4.414062 5.742188 -4.375 5.609375 -4.375 C 5.472656 -4.375 5.359375 -4.421875 5.265625 -4.515625 C 5.171875 -4.617188 5.125 -4.738281 5.125 -4.875 C 5.132812 -5.269531 5 -5.609375 4.71875 -5.890625 C 4.332031 -6.140625 3.925781 -6.191406 3.5 -6.046875 C 3.164062 -5.992188 2.804688 -5.84375 2.421875 -5.59375 C 2.035156 -5.351562 1.671875 -5.0625 1.328125 -4.71875 C 0.992188 -4.382812 0.71875 -4.03125 0.5 -3.65625 C 0.28125 -3.28125 0.171875 -2.929688 0.171875 -2.609375 C 0.179688 -1.910156 0.820312 -1.441406 2.09375 -1.203125 C 3.320312 -0.984375 4.492188 -0.910156 5.609375 -0.984375 C 6.734375 -1.054688 7.769531 -1.222656 8.71875 -1.484375 C 9.664062 -1.753906 10.519531 -2.0625 11.28125 -2.40625 C 12.039062 -2.757812 12.6875 -3.109375 13.21875 -3.453125 C 13.757812 -3.796875 14.175781 -4.078125 14.46875 -4.296875 C 14.757812 -4.523438 14.910156 -4.648438 14.921875 -4.671875 C 15.023438 -4.753906 15.144531 -4.789062 15.28125 -4.78125 C 15.414062 -4.78125 15.523438 -4.726562 15.609375 -4.625 Z M 15.609375 -4.625 "/></g></g></g><g fill="#600000" fill-opacity="1"><g transform="translate(96.642373, 237.499125)"><g><path d="M 15.484375 -4.5 C 15.566406 -4.394531 15.609375 -4.273438 15.609375 -4.140625 C 15.597656 -4.003906 15.539062 -3.894531 15.4375 -3.8125 C 15.40625 -3.78125 15.222656 -3.625 14.890625 -3.34375 C 14.566406 -3.070312 14.132812 -2.75 13.59375 -2.375 C 13.0625 -2.007812 12.457031 -1.648438 11.78125 -1.296875 C 11.113281 -0.953125 10.40625 -0.671875 9.65625 -0.453125 C 8.90625 -0.242188 8.15625 -0.164062 7.40625 -0.21875 C 6.664062 -0.269531 5.957031 -0.519531 5.28125 -0.96875 C 4.757812 -1.300781 4.34375 -1.734375 4.03125 -2.265625 C 3.945312 -2.410156 3.8125 -2.488281 3.625 -2.5 C 3.457031 -2.507812 3.320312 -2.441406 3.21875 -2.296875 C 2.945312 -1.890625 2.648438 -1.503906 2.328125 -1.140625 C 2.003906 -0.773438 1.675781 -0.476562 1.34375 -0.25 C 1.019531 -0.03125 0.703125 0.0820312 0.390625 0.09375 L 0.375 0.09375 C 0.144531 0.0820312 -0.0625 0.015625 -0.25 -0.109375 C -0.4375 -0.242188 -0.578125 -0.414062 -0.671875 -0.625 C -1.035156 -1.550781 -0.976562 -2.453125 -0.5 -3.328125 C -0.09375 -4.179688 0.472656 -4.90625 1.203125 -5.5 C 1.941406 -6.101562 2.773438 -6.515625 3.703125 -6.734375 C 3.890625 -6.785156 4.046875 -6.742188 4.171875 -6.609375 C 4.304688 -6.472656 4.347656 -6.3125 4.296875 -6.125 C 4.234375 -5.957031 4.109375 -5.847656 3.921875 -5.796875 C 3.148438 -5.609375 2.453125 -5.265625 1.828125 -4.765625 C 1.210938 -4.265625 0.734375 -3.648438 0.390625 -2.921875 C 0.046875 -2.328125 -0.015625 -1.710938 0.203125 -1.078125 C 0.273438 -0.953125 0.332031 -0.890625 0.375 -0.890625 C 0.476562 -0.816406 0.640625 -0.894531 0.859375 -1.125 C 1.085938 -1.351562 1.34375 -1.675781 1.625 -2.09375 C 1.914062 -2.507812 2.195312 -2.96875 2.46875 -3.46875 C 2.75 -3.976562 3 -4.476562 3.21875 -4.96875 C 3.320312 -5.1875 3.492188 -5.273438 3.734375 -5.234375 C 3.972656 -5.203125 4.109375 -5.066406 4.140625 -4.828125 C 4.140625 -4.816406 4.164062 -4.695312 4.21875 -4.46875 C 4.269531 -4.238281 4.359375 -3.957031 4.484375 -3.625 C 4.609375 -3.289062 4.773438 -2.953125 4.984375 -2.609375 C 5.203125 -2.273438 5.476562 -2 5.8125 -1.78125 C 6.382812 -1.394531 7 -1.191406 7.65625 -1.171875 C 8.3125 -1.148438 8.972656 -1.25 9.640625 -1.46875 C 10.304688 -1.6875 10.945312 -1.957031 11.5625 -2.28125 C 12.175781 -2.613281 12.722656 -2.953125 13.203125 -3.296875 C 13.679688 -3.640625 14.0625 -3.925781 14.34375 -4.15625 C 14.632812 -4.394531 14.785156 -4.519531 14.796875 -4.53125 C 14.890625 -4.625 15.003906 -4.664062 15.140625 -4.65625 C 15.273438 -4.644531 15.390625 -4.59375 15.484375 -4.5 Z M 15.484375 -4.5 "/></g></g></g><g fill="#600000" fill-opacity="1"><g transform="translate(111.596109, 237.499125)"><g/></g></g><g fill="#600000" fill-opacity="1"><g transform="translate(118.48075, 237.499125)"><g><path d="M 5.890625 -0.203125 L 5.828125 -0.203125 C 5.671875 -0.203125 5.539062 -0.269531 5.4375 -0.40625 C 5.34375 -0.539062 5.328125 -0.691406 5.390625 -0.859375 C 5.679688 -1.640625 6.007812 -2.585938 6.375 -3.703125 C 6.75 -4.816406 7.125 -5.957031 7.5 -7.125 C 7.519531 -7.226562 7.5 -7.316406 7.4375 -7.390625 C 7.394531 -7.460938 7.320312 -7.492188 7.21875 -7.484375 C 5.6875 -7.304688 4.253906 -7.609375 2.921875 -8.390625 C 2.316406 -8.742188 1.8125 -9.195312 1.40625 -9.75 C 1 -10.300781 0.707031 -10.910156 0.53125 -11.578125 C 0.351562 -12.242188 0.304688 -12.921875 0.390625 -13.609375 C 0.515625 -14.722656 0.929688 -15.785156 1.640625 -16.796875 C 2.347656 -17.804688 3.300781 -18.722656 4.5 -19.546875 C 5.707031 -20.378906 7.117188 -21.070312 8.734375 -21.625 C 10.140625 -22.101562 11.570312 -22.367188 13.03125 -22.421875 C 14.488281 -22.472656 15.882812 -22.3125 17.21875 -21.9375 C 18.550781 -21.570312 19.738281 -21.003906 20.78125 -20.234375 C 21.695312 -19.609375 22.414062 -18.796875 22.9375 -17.796875 C 23.457031 -16.796875 23.707031 -15.738281 23.6875 -14.625 C 23.625 -13.289062 23.34375 -12.050781 22.84375 -10.90625 C 22.351562 -9.769531 21.695312 -8.71875 20.875 -7.75 C 20.0625 -6.789062 19.144531 -5.925781 18.125 -5.15625 C 17.101562 -4.382812 16.03125 -3.703125 14.90625 -3.109375 C 13.78125 -2.515625 12.664062 -2.007812 11.5625 -1.59375 C 10.457031 -1.1875 9.414062 -0.863281 8.4375 -0.625 C 7.457031 -0.394531 6.609375 -0.253906 5.890625 -0.203125 Z M 8.578125 -7.328125 C 8.265625 -6.328125 7.945312 -5.332031 7.625 -4.34375 C 7.300781 -3.363281 7 -2.472656 6.71875 -1.671875 C 6.6875 -1.578125 6.703125 -1.488281 6.765625 -1.40625 C 6.835938 -1.332031 6.921875 -1.304688 7.015625 -1.328125 C 7.878906 -1.484375 8.859375 -1.734375 9.953125 -2.078125 C 11.046875 -2.429688 12.171875 -2.882812 13.328125 -3.4375 C 14.492188 -3.988281 15.617188 -4.632812 16.703125 -5.375 C 17.785156 -6.113281 18.769531 -6.953125 19.65625 -7.890625 C 20.550781 -8.828125 21.269531 -9.859375 21.8125 -10.984375 C 22.351562 -12.117188 22.648438 -13.347656 22.703125 -14.671875 C 22.710938 -15.628906 22.492188 -16.53125 22.046875 -17.375 C 21.609375 -18.21875 20.988281 -18.910156 20.1875 -19.453125 C 19.25 -20.160156 18.160156 -20.679688 16.921875 -21.015625 C 15.691406 -21.359375 14.398438 -21.503906 13.046875 -21.453125 C 11.691406 -21.410156 10.359375 -21.160156 9.046875 -20.703125 C 7.554688 -20.191406 6.253906 -19.5625 5.140625 -18.8125 C 4.023438 -18.070312 3.140625 -17.25 2.484375 -16.34375 C 1.835938 -15.4375 1.460938 -14.488281 1.359375 -13.5 C 1.242188 -12.644531 1.375 -11.828125 1.75 -11.046875 C 2.125 -10.273438 2.679688 -9.664062 3.421875 -9.21875 C 4.722656 -8.476562 6.097656 -8.234375 7.546875 -8.484375 C 7.804688 -8.523438 7.972656 -8.671875 8.046875 -8.921875 C 8.347656 -9.859375 8.625 -10.753906 8.875 -11.609375 C 9.125 -12.460938 9.34375 -13.195312 9.53125 -13.8125 C 9.5625 -13.925781 9.539062 -14.019531 9.46875 -14.09375 C 9.382812 -14.164062 9.296875 -14.179688 9.203125 -14.140625 C 8.222656 -13.867188 7.316406 -14.003906 6.484375 -14.546875 C 6.367188 -14.628906 6.296875 -14.734375 6.265625 -14.859375 C 6.234375 -14.984375 6.253906 -15.101562 6.328125 -15.21875 C 6.390625 -15.332031 6.484375 -15.40625 6.609375 -15.4375 C 6.742188 -15.46875 6.875 -15.453125 7 -15.390625 C 7.507812 -15.066406 8.0625 -14.941406 8.65625 -15.015625 C 9.25 -15.097656 9.753906 -15.363281 10.171875 -15.8125 C 10.335938 -16 10.53125 -16.03125 10.75 -15.90625 C 10.976562 -15.78125 11.054688 -15.59375 10.984375 -15.34375 C 10.984375 -15.320312 10.898438 -15.035156 10.734375 -14.484375 C 10.578125 -13.941406 10.363281 -13.210938 10.09375 -12.296875 C 9.820312 -11.390625 9.519531 -10.394531 9.1875 -9.3125 C 9.15625 -9.195312 9.175781 -9.101562 9.25 -9.03125 C 9.332031 -8.957031 9.425781 -8.9375 9.53125 -8.96875 C 10.664062 -9.375 11.734375 -9.910156 12.734375 -10.578125 C 12.878906 -10.671875 13.039062 -10.679688 13.21875 -10.609375 C 13.394531 -10.523438 13.488281 -10.382812 13.5 -10.1875 C 13.5 -10 13.414062 -9.851562 13.25 -9.75 C 11.96875 -8.894531 10.582031 -8.25 9.09375 -7.8125 C 8.832031 -7.75 8.660156 -7.585938 8.578125 -7.328125 Z M 8.578125 -7.328125 "/></g></g></g><g fill="#600000" fill-opacity="1"><g transform="translate(141.077906, 237.499125)"><g><path d="M 15.53125 -4.765625 C 15.625 -4.660156 15.660156 -4.539062 15.640625 -4.40625 C 15.628906 -4.269531 15.566406 -4.160156 15.453125 -4.078125 C 15.410156 -4.035156 15.191406 -3.867188 14.796875 -3.578125 C 14.398438 -3.285156 13.867188 -2.9375 13.203125 -2.53125 C 12.535156 -2.132812 11.765625 -1.738281 10.890625 -1.34375 C 10.015625 -0.957031 9.078125 -0.632812 8.078125 -0.375 C 7.078125 -0.113281 6.046875 0.015625 4.984375 0.015625 C 3.722656 0.0234375 2.515625 -0.203125 1.359375 -0.671875 C 0.710938 -0.929688 0.257812 -1.234375 0 -1.578125 C -0.257812 -1.921875 -0.40625 -2.257812 -0.4375 -2.59375 C -0.476562 -2.925781 -0.472656 -3.207031 -0.421875 -3.4375 C -0.316406 -3.894531 -0.101562 -4.335938 0.21875 -4.765625 C 0.539062 -5.191406 0.914062 -5.570312 1.34375 -5.90625 C 1.78125 -6.25 2.222656 -6.515625 2.671875 -6.703125 C 3.117188 -6.890625 3.53125 -6.96875 3.90625 -6.9375 C 4.238281 -6.9375 4.523438 -6.816406 4.765625 -6.578125 C 5.003906 -6.347656 5.140625 -6.0625 5.171875 -5.71875 C 5.179688 -5.519531 5.128906 -5.273438 5.015625 -4.984375 C 4.898438 -4.703125 4.617188 -4.410156 4.171875 -4.109375 C 3.117188 -3.453125 1.96875 -3.160156 0.71875 -3.234375 C 0.65625 -3.253906 0.601562 -3.242188 0.5625 -3.203125 C 0.507812 -3.160156 0.488281 -3.113281 0.5 -3.0625 C 0.488281 -2.945312 0.5 -2.800781 0.53125 -2.625 C 0.570312 -2.457031 0.675781 -2.28125 0.84375 -2.09375 C 1.019531 -1.90625 1.3125 -1.734375 1.71875 -1.578125 C 2.5625 -1.210938 3.421875 -1.003906 4.296875 -0.953125 C 5.179688 -0.910156 6.050781 -0.96875 6.90625 -1.125 C 7.757812 -1.289062 8.578125 -1.515625 9.359375 -1.796875 C 10.140625 -2.085938 10.859375 -2.40625 11.515625 -2.75 C 12.179688 -3.101562 12.757812 -3.429688 13.25 -3.734375 C 13.75 -4.046875 14.140625 -4.304688 14.421875 -4.515625 C 14.703125 -4.722656 14.84375 -4.828125 14.84375 -4.828125 C 14.957031 -4.921875 15.082031 -4.957031 15.21875 -4.9375 C 15.34375 -4.925781 15.445312 -4.867188 15.53125 -4.765625 Z M 1.140625 -4.375 C 1.003906 -4.1875 1.019531 -4.082031 1.1875 -4.0625 C 1.351562 -4.039062 1.59375 -4.078125 1.90625 -4.171875 C 2.21875 -4.265625 2.535156 -4.378906 2.859375 -4.515625 C 3.179688 -4.660156 3.441406 -4.796875 3.640625 -4.921875 C 4.023438 -5.179688 4.207031 -5.414062 4.1875 -5.625 C 4.175781 -5.757812 4.140625 -5.847656 4.078125 -5.890625 C 4.023438 -5.941406 3.945312 -5.972656 3.84375 -5.984375 C 3.457031 -6.003906 3.003906 -5.863281 2.484375 -5.5625 C 1.960938 -5.257812 1.515625 -4.863281 1.140625 -4.375 Z M 1.140625 -4.375 "/></g></g></g><g fill="#600000" fill-opacity="1"><g transform="translate(155.902088, 237.499125)"><g><path d="M 12.734375 -4.765625 C 12.835938 -4.660156 12.890625 -4.539062 12.890625 -4.40625 C 12.890625 -4.269531 12.835938 -4.15625 12.734375 -4.0625 C 12.703125 -4.019531 12.519531 -3.847656 12.1875 -3.546875 C 11.863281 -3.253906 11.4375 -2.90625 10.90625 -2.5 C 10.375 -2.09375 9.769531 -1.6875 9.09375 -1.28125 C 8.414062 -0.875 7.703125 -0.535156 6.953125 -0.265625 C 6.203125 0.00390625 5.453125 0.140625 4.703125 0.140625 C 4.242188 0.140625 3.800781 0.0820312 3.375 -0.03125 C 2.570312 -0.269531 1.898438 -0.753906 1.359375 -1.484375 C 0.828125 -2.222656 0.4375 -3.171875 0.1875 -4.328125 C 0.15625 -4.390625 0.140625 -4.453125 0.140625 -4.515625 C 0.0351562 -5.117188 -0.0351562 -5.726562 -0.078125 -6.34375 C -0.109375 -7.144531 -0.0859375 -7.984375 -0.015625 -8.859375 C 0.046875 -9.742188 0.15625 -10.609375 0.3125 -11.453125 C 0.476562 -12.296875 0.6875 -13.078125 0.9375 -13.796875 C 1.1875 -14.523438 1.46875 -15.132812 1.78125 -15.625 C 2.101562 -16.125 2.453125 -16.457031 2.828125 -16.625 C 3.085938 -16.738281 3.359375 -16.757812 3.640625 -16.6875 C 3.929688 -16.613281 4.160156 -16.460938 4.328125 -16.234375 C 4.597656 -15.953125 4.742188 -15.539062 4.765625 -15 C 4.785156 -14.46875 4.71875 -13.851562 4.5625 -13.15625 C 4.414062 -12.46875 4.210938 -11.738281 3.953125 -10.96875 C 3.703125 -10.207031 3.421875 -9.457031 3.109375 -8.71875 C 2.796875 -7.976562 2.492188 -7.285156 2.203125 -6.640625 C 1.910156 -6.003906 1.65625 -5.46875 1.4375 -5.03125 C 1.238281 -4.625 1.203125 -4.210938 1.328125 -3.796875 C 1.515625 -3.148438 1.789062 -2.566406 2.15625 -2.046875 C 2.519531 -1.523438 3.015625 -1.164062 3.640625 -0.96875 C 4.222656 -0.789062 4.832031 -0.753906 5.46875 -0.859375 C 6.101562 -0.972656 6.734375 -1.175781 7.359375 -1.46875 C 7.984375 -1.757812 8.578125 -2.085938 9.140625 -2.453125 C 9.703125 -2.816406 10.195312 -3.171875 10.625 -3.515625 C 11.0625 -3.859375 11.40625 -4.144531 11.65625 -4.375 C 11.90625 -4.613281 12.035156 -4.742188 12.046875 -4.765625 C 12.148438 -4.847656 12.269531 -4.890625 12.40625 -4.890625 C 12.53125 -4.890625 12.640625 -4.847656 12.734375 -4.765625 Z M 0.96875 -6.625 C 0.976562 -6.539062 1.019531 -6.484375 1.09375 -6.453125 C 1.164062 -6.421875 1.226562 -6.441406 1.28125 -6.515625 C 1.4375 -6.773438 1.617188 -7.15625 1.828125 -7.65625 C 2.035156 -8.164062 2.25 -8.738281 2.46875 -9.375 C 2.695312 -10.019531 2.90625 -10.675781 3.09375 -11.34375 C 3.28125 -12.007812 3.429688 -12.640625 3.546875 -13.234375 C 3.671875 -13.828125 3.742188 -14.332031 3.765625 -14.75 C 3.796875 -15.175781 3.75 -15.453125 3.625 -15.578125 C 3.519531 -15.691406 3.414062 -15.75 3.3125 -15.75 C 3.28125 -15.75 3.242188 -15.742188 3.203125 -15.734375 C 3.015625 -15.648438 2.800781 -15.382812 2.5625 -14.9375 C 2.320312 -14.5 2.082031 -13.9375 1.84375 -13.25 C 1.613281 -12.570312 1.410156 -11.835938 1.234375 -11.046875 C 1.054688 -10.265625 0.9375 -9.484375 0.875 -8.703125 C 0.8125 -7.929688 0.84375 -7.238281 0.96875 -6.625 Z M 0.96875 -6.625 "/></g></g></g><g fill="#600000" fill-opacity="1"><g transform="translate(168.098266, 237.499125)"><g><path d="M 12.890625 -4.875 C 12.984375 -4.78125 13.03125 -4.664062 13.03125 -4.53125 C 13.039062 -4.394531 13 -4.285156 12.90625 -4.203125 C 12.351562 -3.609375 11.703125 -3.1875 10.953125 -2.9375 C 10.203125 -2.6875 9.4375 -2.601562 8.65625 -2.6875 C 7.882812 -2.769531 7.160156 -3.039062 6.484375 -3.5 C 6.253906 -3.644531 6.039062 -3.625 5.84375 -3.4375 C 5.125 -2.726562 4.445312 -1.976562 3.8125 -1.1875 C 3.75 -1.113281 3.710938 -1.03125 3.703125 -0.9375 C 3.578125 -0.1875 3.414062 0.585938 3.21875 1.390625 C 3.03125 2.191406 2.816406 2.972656 2.578125 3.734375 C 2.347656 4.492188 2.101562 5.195312 1.84375 5.84375 C 1.59375 6.488281 1.332031 7.03125 1.0625 7.46875 C 0.800781 7.914062 0.546875 8.222656 0.296875 8.390625 C 0.117188 8.515625 -0.0664062 8.578125 -0.265625 8.578125 C -0.515625 8.578125 -0.726562 8.484375 -0.90625 8.296875 C -1.3125 7.859375 -1.488281 7.347656 -1.4375 6.765625 C -1.425781 6.242188 -1.300781 5.65625 -1.0625 5 C -0.832031 4.34375 -0.523438 3.648438 -0.140625 2.921875 C 0.234375 2.203125 0.664062 1.472656 1.15625 0.734375 C 1.65625 0.00390625 2.175781 -0.695312 2.71875 -1.375 C 2.78125 -1.457031 2.816406 -1.546875 2.828125 -1.640625 C 2.921875 -2.191406 2.976562 -2.6875 3 -3.125 C 2.8125 -2.757812 2.59375 -2.394531 2.34375 -2.03125 C 2.101562 -1.664062 1.835938 -1.347656 1.546875 -1.078125 C 1.265625 -0.816406 0.972656 -0.65625 0.671875 -0.59375 C 0.128906 -0.488281 -0.316406 -0.65625 -0.671875 -1.09375 C -0.910156 -1.363281 -1.007812 -1.734375 -0.96875 -2.203125 C -0.925781 -2.679688 -0.828125 -3.125 -0.671875 -3.53125 C -0.316406 -4.457031 0.25 -5.222656 1.03125 -5.828125 C 1.820312 -6.429688 2.710938 -6.78125 3.703125 -6.875 C 3.835938 -6.882812 3.957031 -6.84375 4.0625 -6.75 C 4.164062 -6.664062 4.21875 -6.554688 4.21875 -6.421875 C 4.226562 -6.285156 4.191406 -6.164062 4.109375 -6.0625 C 4.023438 -5.957031 3.914062 -5.90625 3.78125 -5.90625 C 2.976562 -5.820312 2.257812 -5.535156 1.625 -5.046875 C 0.988281 -4.554688 0.523438 -3.941406 0.234375 -3.203125 C -0.00390625 -2.734375 -0.0625 -2.242188 0.0625 -1.734375 C 0.164062 -1.628906 0.25 -1.566406 0.3125 -1.546875 C 0.382812 -1.535156 0.441406 -1.539062 0.484375 -1.5625 C 0.671875 -1.59375 0.875 -1.726562 1.09375 -1.96875 C 1.320312 -2.21875 1.546875 -2.53125 1.765625 -2.90625 C 1.992188 -3.289062 2.203125 -3.6875 2.390625 -4.09375 C 2.585938 -4.507812 2.753906 -4.898438 2.890625 -5.265625 C 2.960938 -5.472656 3.109375 -5.578125 3.328125 -5.578125 C 3.554688 -5.578125 3.710938 -5.476562 3.796875 -5.28125 C 3.921875 -4.894531 3.984375 -4.5 3.984375 -4.09375 C 3.992188 -3.957031 4.015625 -3.8125 4.046875 -3.65625 C 4.085938 -3.5 4.171875 -3.414062 4.296875 -3.40625 C 4.421875 -3.394531 4.597656 -3.519531 4.828125 -3.78125 C 4.929688 -3.90625 5.035156 -4.019531 5.140625 -4.125 C 5.253906 -4.226562 5.367188 -4.328125 5.484375 -4.421875 C 5.648438 -4.585938 5.851562 -4.675781 6.09375 -4.6875 C 6.34375 -4.695312 6.566406 -4.628906 6.765625 -4.484375 C 7.304688 -4.046875 7.90625 -3.769531 8.5625 -3.65625 C 9.21875 -3.539062 9.867188 -3.582031 10.515625 -3.78125 C 11.160156 -3.988281 11.722656 -4.34375 12.203125 -4.84375 C 12.285156 -4.945312 12.394531 -5 12.53125 -5 C 12.664062 -5.007812 12.785156 -4.96875 12.890625 -4.875 Z M 0.5625 6.421875 C 0.707031 6.140625 0.867188 5.765625 1.046875 5.296875 C 1.234375 4.835938 1.421875 4.34375 1.609375 3.8125 C 1.804688 3.289062 1.972656 2.796875 2.109375 2.328125 C 2.253906 1.867188 2.359375 1.484375 2.421875 1.171875 C 2.484375 0.867188 2.484375 0.707031 2.421875 0.6875 C 2.359375 0.65625 2.242188 0.75 2.078125 0.96875 C 1.921875 1.195312 1.734375 1.5 1.515625 1.875 C 1.304688 2.25 1.085938 2.664062 0.859375 3.125 C 0.628906 3.59375 0.414062 4.0625 0.21875 4.53125 C 0.0195312 5 -0.132812 5.429688 -0.25 5.828125 C -0.375 6.222656 -0.445312 6.539062 -0.46875 6.78125 C -0.46875 6.957031 -0.457031 7.125 -0.4375 7.28125 C -0.414062 7.445312 -0.347656 7.550781 -0.234375 7.59375 C -0.128906 7.613281 -0.0234375 7.53125 0.078125 7.34375 C 0.179688 7.164062 0.34375 6.859375 0.5625 6.421875 Z M 0.5625 6.421875 "/></g></g></g><g fill="#600000" fill-opacity="1"><g transform="translate(180.294444, 237.499125)"><g><path d="M 15.484375 -4.5 C 15.566406 -4.394531 15.609375 -4.273438 15.609375 -4.140625 C 15.597656 -4.003906 15.539062 -3.894531 15.4375 -3.8125 C 15.40625 -3.78125 15.222656 -3.625 14.890625 -3.34375 C 14.566406 -3.070312 14.132812 -2.75 13.59375 -2.375 C 13.0625 -2.007812 12.457031 -1.648438 11.78125 -1.296875 C 11.113281 -0.953125 10.40625 -0.671875 9.65625 -0.453125 C 8.90625 -0.242188 8.15625 -0.164062 7.40625 -0.21875 C 6.664062 -0.269531 5.957031 -0.519531 5.28125 -0.96875 C 4.757812 -1.300781 4.34375 -1.734375 4.03125 -2.265625 C 3.945312 -2.410156 3.8125 -2.488281 3.625 -2.5 C 3.457031 -2.507812 3.320312 -2.441406 3.21875 -2.296875 C 2.945312 -1.890625 2.648438 -1.503906 2.328125 -1.140625 C 2.003906 -0.773438 1.675781 -0.476562 1.34375 -0.25 C 1.019531 -0.03125 0.703125 0.0820312 0.390625 0.09375 L 0.375 0.09375 C 0.144531 0.0820312 -0.0625 0.015625 -0.25 -0.109375 C -0.4375 -0.242188 -0.578125 -0.414062 -0.671875 -0.625 C -1.035156 -1.550781 -0.976562 -2.453125 -0.5 -3.328125 C -0.09375 -4.179688 0.472656 -4.90625 1.203125 -5.5 C 1.941406 -6.101562 2.773438 -6.515625 3.703125 -6.734375 C 3.890625 -6.785156 4.046875 -6.742188 4.171875 -6.609375 C 4.304688 -6.472656 4.347656 -6.3125 4.296875 -6.125 C 4.234375 -5.957031 4.109375 -5.847656 3.921875 -5.796875 C 3.148438 -5.609375 2.453125 -5.265625 1.828125 -4.765625 C 1.210938 -4.265625 0.734375 -3.648438 0.390625 -2.921875 C 0.046875 -2.328125 -0.015625 -1.710938 0.203125 -1.078125 C 0.273438 -0.953125 0.332031 -0.890625 0.375 -0.890625 C 0.476562 -0.816406 0.640625 -0.894531 0.859375 -1.125 C 1.085938 -1.351562 1.34375 -1.675781 1.625 -2.09375 C 1.914062 -2.507812 2.195312 -2.96875 2.46875 -3.46875 C 2.75 -3.976562 3 -4.476562 3.21875 -4.96875 C 3.320312 -5.1875 3.492188 -5.273438 3.734375 -5.234375 C 3.972656 -5.203125 4.109375 -5.066406 4.140625 -4.828125 C 4.140625 -4.816406 4.164062 -4.695312 4.21875 -4.46875 C 4.269531 -4.238281 4.359375 -3.957031 4.484375 -3.625 C 4.609375 -3.289062 4.773438 -2.953125 4.984375 -2.609375 C 5.203125 -2.273438 5.476562 -2 5.8125 -1.78125 C 6.382812 -1.394531 7 -1.191406 7.65625 -1.171875 C 8.3125 -1.148438 8.972656 -1.25 9.640625 -1.46875 C 10.304688 -1.6875 10.945312 -1.957031 11.5625 -2.28125 C 12.175781 -2.613281 12.722656 -2.953125 13.203125 -3.296875 C 13.679688 -3.640625 14.0625 -3.925781 14.34375 -4.15625 C 14.632812 -4.394531 14.785156 -4.519531 14.796875 -4.53125 C 14.890625 -4.625 15.003906 -4.664062 15.140625 -4.65625 C 15.273438 -4.644531 15.390625 -4.59375 15.484375 -4.5 Z M 15.484375 -4.5 "/></g></g></g><g fill="#600000" fill-opacity="1"><g transform="translate(195.248181, 237.499125)"><g><path d="M 17.53125 -4.234375 C 17.613281 -4.140625 17.65625 -4.023438 17.65625 -3.890625 C 17.65625 -3.765625 17.609375 -3.65625 17.515625 -3.5625 C 16.785156 -2.84375 15.984375 -2.226562 15.109375 -1.71875 C 14.234375 -1.21875 13.351562 -0.820312 12.46875 -0.53125 C 11.582031 -0.25 10.75 -0.0703125 9.96875 0 C 9.1875 0.0625 8.523438 0.00390625 7.984375 -0.171875 C 7.316406 -0.398438 6.738281 -0.765625 6.25 -1.265625 C 5.757812 -1.765625 5.410156 -2.347656 5.203125 -3.015625 C 5.160156 -3.128906 5.082031 -3.191406 4.96875 -3.203125 C 4.851562 -3.210938 4.765625 -3.171875 4.703125 -3.078125 C 3.222656 -0.972656 1.992188 0.078125 1.015625 0.078125 C 0.953125 0.078125 0.890625 0.0703125 0.828125 0.0625 C 0.535156 0.0195312 0.273438 -0.0859375 0.046875 -0.265625 C -0.179688 -0.441406 -0.34375 -0.675781 -0.4375 -0.96875 C -0.59375 -1.34375 -0.640625 -1.769531 -0.578125 -2.25 C -0.523438 -2.738281 -0.414062 -3.195312 -0.25 -3.625 C -0.0820312 -4.0625 0.0976562 -4.394531 0.296875 -4.625 C 0.835938 -5.257812 1.328125 -5.628906 1.765625 -5.734375 C 2.210938 -5.847656 2.585938 -5.863281 2.890625 -5.78125 C 3.585938 -5.550781 4.035156 -5.082031 4.234375 -4.375 C 4.253906 -4.25 4.222656 -4.128906 4.140625 -4.015625 C 4.054688 -3.898438 3.945312 -3.835938 3.8125 -3.828125 C 3.6875 -3.804688 3.570312 -3.832031 3.46875 -3.90625 C 3.363281 -3.988281 3.300781 -4.09375 3.28125 -4.21875 C 3.144531 -4.539062 2.90625 -4.75 2.5625 -4.84375 C 2.28125 -4.90625 2.003906 -4.832031 1.734375 -4.625 C 1.460938 -4.425781 1.226562 -4.21875 1.03125 -4 C 0.476562 -3.175781 0.289062 -2.273438 0.46875 -1.296875 C 0.539062 -1.046875 0.707031 -0.914062 0.96875 -0.90625 C 1.195312 -0.875 1.585938 -1.082031 2.140625 -1.53125 C 2.691406 -1.988281 3.375 -2.820312 4.1875 -4.03125 C 4.3125 -4.21875 4.4375 -4.410156 4.5625 -4.609375 C 4.695312 -4.828125 4.75 -5.066406 4.71875 -5.328125 C 4.664062 -6.128906 4.679688 -6.929688 4.765625 -7.734375 C 4.847656 -8.691406 5.007812 -9.644531 5.25 -10.59375 C 5.5 -11.550781 5.8125 -12.429688 6.1875 -13.234375 C 6.570312 -14.035156 6.992188 -14.6875 7.453125 -15.1875 C 7.910156 -15.695312 8.398438 -15.992188 8.921875 -16.078125 C 9.296875 -16.140625 9.582031 -16.007812 9.78125 -15.6875 C 9.945312 -15.425781 9.992188 -15.015625 9.921875 -14.453125 C 9.859375 -13.890625 9.703125 -13.234375 9.453125 -12.484375 C 9.210938 -11.742188 8.910156 -10.945312 8.546875 -10.09375 C 8.179688 -9.25 7.78125 -8.398438 7.34375 -7.546875 C 6.90625 -6.703125 6.460938 -5.898438 6.015625 -5.140625 C 5.859375 -4.867188 5.8125 -4.582031 5.875 -4.28125 C 6.007812 -3.570312 6.257812 -2.921875 6.625 -2.328125 C 7 -1.734375 7.550781 -1.320312 8.28125 -1.09375 C 8.695312 -0.96875 9.242188 -0.929688 9.921875 -0.984375 C 10.597656 -1.035156 11.335938 -1.1875 12.140625 -1.4375 C 12.941406 -1.695312 13.75 -2.054688 14.5625 -2.515625 C 15.382812 -2.984375 16.144531 -3.566406 16.84375 -4.265625 C 16.9375 -4.347656 17.050781 -4.390625 17.1875 -4.390625 C 17.320312 -4.390625 17.4375 -4.335938 17.53125 -4.234375 Z M 5.71875 -7.640625 C 5.707031 -7.535156 5.703125 -7.429688 5.703125 -7.328125 C 5.710938 -7.222656 5.738281 -7.160156 5.78125 -7.140625 C 5.820312 -7.117188 5.890625 -7.1875 5.984375 -7.34375 C 6.910156 -9 7.625 -10.441406 8.125 -11.671875 C 8.632812 -12.910156 8.925781 -13.882812 9 -14.59375 C 9.007812 -14.726562 8.957031 -14.828125 8.84375 -14.890625 C 8.738281 -14.953125 8.632812 -14.945312 8.53125 -14.875 C 8.15625 -14.582031 7.769531 -14.082031 7.375 -13.375 C 6.976562 -12.675781 6.628906 -11.828125 6.328125 -10.828125 C 6.023438 -9.835938 5.820312 -8.773438 5.71875 -7.640625 Z M 5.71875 -7.640625 "/></g></g></g><g fill="#600000" fill-opacity="1"><g transform="translate(212.089633, 237.499125)"><g><path d="M 13.515625 -5.265625 C 13.617188 -5.160156 13.671875 -5.039062 13.671875 -4.90625 C 13.671875 -4.769531 13.617188 -4.660156 13.515625 -4.578125 C 12.722656 -3.785156 11.882812 -3.15625 11 -2.6875 C 10.113281 -2.226562 9.222656 -1.898438 8.328125 -1.703125 C 7.441406 -1.503906 6.597656 -1.414062 5.796875 -1.4375 C 5.003906 -1.457031 4.3125 -1.550781 3.71875 -1.71875 C 3.632812 -1.75 3.566406 -1.71875 3.515625 -1.625 C 3.359375 -1.257812 3.113281 -0.960938 2.78125 -0.734375 C 2.457031 -0.515625 2.09375 -0.398438 1.6875 -0.390625 C 1.28125 -0.390625 0.90625 -0.488281 0.5625 -0.6875 C 0.09375 -0.90625 -0.238281 -1.25 -0.4375 -1.71875 C -0.632812 -2.1875 -0.65625 -2.671875 -0.5 -3.171875 C -0.382812 -3.597656 -0.191406 -4.003906 0.078125 -4.390625 C 0.347656 -4.785156 0.65625 -5.101562 1 -5.34375 C 1.34375 -5.59375 1.671875 -5.71875 1.984375 -5.71875 L 2 -5.71875 C 2.132812 -5.71875 2.25 -5.664062 2.34375 -5.5625 C 2.4375 -5.46875 2.484375 -5.351562 2.484375 -5.21875 C 2.484375 -5.09375 2.429688 -4.984375 2.328125 -4.890625 C 2.234375 -4.804688 2.117188 -4.765625 1.984375 -4.765625 C 1.867188 -4.765625 1.703125 -4.675781 1.484375 -4.5 C 1.273438 -4.320312 1.066406 -4.09375 0.859375 -3.8125 C 0.660156 -3.539062 0.515625 -3.242188 0.421875 -2.921875 C 0.328125 -2.648438 0.332031 -2.378906 0.4375 -2.109375 C 0.550781 -1.847656 0.738281 -1.664062 1 -1.5625 C 1.21875 -1.382812 1.460938 -1.3125 1.734375 -1.34375 C 2.003906 -1.375 2.226562 -1.492188 2.40625 -1.703125 C 2.46875 -1.773438 2.535156 -1.867188 2.609375 -1.984375 C 2.679688 -2.109375 2.664062 -2.207031 2.5625 -2.28125 C 2.207031 -2.5 1.988281 -2.8125 1.90625 -3.21875 C 1.820312 -3.625 1.890625 -4 2.109375 -4.34375 C 2.410156 -4.851562 2.679688 -5.140625 2.921875 -5.203125 C 3.171875 -5.265625 3.382812 -5.242188 3.5625 -5.140625 C 3.800781 -5.003906 3.953125 -4.734375 4.015625 -4.328125 C 4.078125 -3.929688 4.070312 -3.507812 4 -3.0625 C 3.976562 -2.945312 4.003906 -2.835938 4.078125 -2.734375 C 4.148438 -2.628906 4.238281 -2.5625 4.34375 -2.53125 C 5.382812 -2.363281 6.414062 -2.359375 7.4375 -2.515625 C 8.457031 -2.679688 9.425781 -2.992188 10.34375 -3.453125 C 11.257812 -3.910156 12.085938 -4.515625 12.828125 -5.265625 C 12.910156 -5.359375 13.023438 -5.40625 13.171875 -5.40625 C 13.304688 -5.40625 13.421875 -5.359375 13.515625 -5.265625 Z M 3.03125 -3.171875 C 3.082031 -3.460938 3.097656 -3.765625 3.078125 -4.078125 C 3.066406 -4.035156 3.046875 -4 3.015625 -3.96875 C 2.992188 -3.9375 2.96875 -3.90625 2.9375 -3.875 C 2.863281 -3.757812 2.832031 -3.632812 2.84375 -3.5 C 2.863281 -3.363281 2.925781 -3.253906 3.03125 -3.171875 Z M 3.03125 -3.171875 "/></g></g></g><g fill="#600000" fill-opacity="1"><g transform="translate(224.878038, 237.499125)"><g/></g></g><g fill="#600000" fill-opacity="1"><g transform="translate(231.762679, 237.499125)"><g><path d="M 9.90625 0.703125 C 9.65625 0.804688 9.398438 0.859375 9.140625 0.859375 C 8.671875 0.835938 8.25 0.6875 7.875 0.40625 C 7.601562 0.25 7.394531 0.0351562 7.25 -0.234375 C 7.101562 -0.503906 7.046875 -0.796875 7.078125 -1.109375 C 7.109375 -1.546875 7.296875 -1.992188 7.640625 -2.453125 C 7.992188 -2.910156 8.445312 -3.378906 9 -3.859375 C 9.550781 -4.347656 10.160156 -4.820312 10.828125 -5.28125 C 11.503906 -5.738281 12.175781 -6.171875 12.84375 -6.578125 C 13.007812 -6.671875 13.117188 -6.804688 13.171875 -6.984375 L 13.40625 -7.78125 C 13.457031 -7.945312 13.414062 -8.085938 13.28125 -8.203125 C 13.125 -8.316406 12.972656 -8.328125 12.828125 -8.234375 C 12.335938 -7.929688 11.769531 -7.617188 11.125 -7.296875 C 10.488281 -6.972656 9.8125 -6.675781 9.09375 -6.40625 C 8.382812 -6.144531 7.660156 -5.945312 6.921875 -5.8125 C 6.179688 -5.675781 5.457031 -5.644531 4.75 -5.71875 C 4.039062 -5.789062 3.378906 -6 2.765625 -6.34375 C 2.078125 -6.726562 1.578125 -7.285156 1.265625 -8.015625 C 0.960938 -8.742188 0.863281 -9.601562 0.96875 -10.59375 C 1.050781 -11.425781 1.269531 -12.300781 1.625 -13.21875 C 1.988281 -14.132812 2.460938 -15.046875 3.046875 -15.953125 C 3.640625 -16.859375 4.332031 -17.710938 5.125 -18.515625 C 5.925781 -19.328125 6.804688 -20.046875 7.765625 -20.671875 C 8.722656 -21.304688 9.738281 -21.800781 10.8125 -22.15625 C 12.144531 -22.59375 13.289062 -22.660156 14.25 -22.359375 C 15.21875 -22.066406 15.878906 -21.445312 16.234375 -20.5 C 16.472656 -19.882812 16.5625 -19.203125 16.5 -18.453125 C 16.4375 -17.703125 16.238281 -16.925781 15.90625 -16.125 C 15.570312 -15.332031 15.109375 -14.554688 14.515625 -13.796875 C 13.929688 -13.046875 13.226562 -12.34375 12.40625 -11.6875 C 11.59375 -11.03125 10.660156 -10.472656 9.609375 -10.015625 C 9.484375 -9.960938 9.359375 -9.960938 9.234375 -10.015625 C 9.109375 -10.066406 9.023438 -10.15625 8.984375 -10.28125 C 8.921875 -10.40625 8.910156 -10.523438 8.953125 -10.640625 C 9.003906 -10.765625 9.09375 -10.851562 9.21875 -10.90625 C 10.476562 -11.457031 11.546875 -12.132812 12.421875 -12.9375 C 13.296875 -13.738281 13.984375 -14.585938 14.484375 -15.484375 C 14.992188 -16.378906 15.316406 -17.238281 15.453125 -18.0625 C 15.597656 -18.882812 15.554688 -19.578125 15.328125 -20.140625 C 15.054688 -20.847656 14.554688 -21.289062 13.828125 -21.46875 C 13.109375 -21.65625 12.207031 -21.578125 11.125 -21.234375 C 10.113281 -20.898438 9.160156 -20.441406 8.265625 -19.859375 C 7.378906 -19.273438 6.566406 -18.609375 5.828125 -17.859375 C 5.085938 -17.109375 4.441406 -16.3125 3.890625 -15.46875 C 3.335938 -14.625 2.890625 -13.78125 2.546875 -12.9375 C 2.203125 -12.09375 1.992188 -11.28125 1.921875 -10.5 C 1.890625 -10.125 1.894531 -9.726562 1.9375 -9.3125 C 1.976562 -8.894531 2.097656 -8.492188 2.296875 -8.109375 C 2.492188 -7.734375 2.804688 -7.429688 3.234375 -7.203125 C 3.785156 -6.878906 4.390625 -6.695312 5.046875 -6.65625 C 5.703125 -6.625 6.375 -6.679688 7.0625 -6.828125 C 7.757812 -6.972656 8.441406 -7.179688 9.109375 -7.453125 C 9.785156 -7.734375 10.421875 -8.03125 11.015625 -8.34375 C 11.617188 -8.65625 12.148438 -8.953125 12.609375 -9.234375 C 13.066406 -9.523438 13.425781 -9.765625 13.6875 -9.953125 C 13.957031 -10.140625 14.097656 -10.238281 14.109375 -10.25 C 14.285156 -10.394531 14.472656 -10.40625 14.671875 -10.28125 C 14.847656 -10.15625 14.914062 -9.976562 14.875 -9.75 C 14.851562 -9.664062 14.816406 -9.515625 14.765625 -9.296875 C 14.722656 -9.078125 14.664062 -8.804688 14.59375 -8.484375 C 14.539062 -8.285156 14.59375 -8.117188 14.75 -7.984375 C 14.914062 -7.859375 15.082031 -7.84375 15.25 -7.9375 C 15.75 -8.195312 16.171875 -8.410156 16.515625 -8.578125 C 16.859375 -8.753906 17.09375 -8.875 17.21875 -8.9375 C 17.34375 -9 17.46875 -9.003906 17.59375 -8.953125 C 17.71875 -8.910156 17.8125 -8.832031 17.875 -8.71875 C 17.925781 -8.59375 17.925781 -8.460938 17.875 -8.328125 C 17.832031 -8.203125 17.753906 -8.117188 17.640625 -8.078125 C 17.160156 -7.835938 16.648438 -7.578125 16.109375 -7.296875 C 15.578125 -7.015625 15.039062 -6.71875 14.5 -6.40625 C 14.113281 -6.1875 13.851562 -5.863281 13.71875 -5.4375 C 13.5 -4.789062 13.253906 -4.140625 12.984375 -3.484375 C 12.722656 -2.828125 12.429688 -2.210938 12.109375 -1.640625 C 11.785156 -1.078125 11.4375 -0.585938 11.0625 -0.171875 C 10.695312 0.234375 10.3125 0.523438 9.90625 0.703125 Z M 12.125 -3.96875 L 12.125 -3.9375 C 12.207031 -4.164062 12.160156 -4.347656 11.984375 -4.484375 C 11.804688 -4.628906 11.617188 -4.632812 11.421875 -4.5 C 10.804688 -4.082031 10.242188 -3.660156 9.734375 -3.234375 C 9.234375 -2.816406 8.832031 -2.421875 8.53125 -2.046875 C 8.238281 -1.671875 8.078125 -1.332031 8.046875 -1.03125 C 8.035156 -0.945312 8.046875 -0.847656 8.078125 -0.734375 C 8.117188 -0.628906 8.234375 -0.515625 8.421875 -0.390625 C 8.753906 -0.109375 9.125 -0.046875 9.53125 -0.203125 C 10.007812 -0.398438 10.46875 -0.847656 10.90625 -1.546875 C 11.351562 -2.242188 11.757812 -3.050781 12.125 -3.96875 Z M 12.125 -3.96875 "/></g></g></g><g fill="#600000" fill-opacity="1"><g transform="translate(247.808312, 237.499125)"><g><path d="M 13.515625 -5.265625 C 13.617188 -5.160156 13.671875 -5.039062 13.671875 -4.90625 C 13.671875 -4.769531 13.617188 -4.660156 13.515625 -4.578125 C 12.722656 -3.785156 11.882812 -3.15625 11 -2.6875 C 10.113281 -2.226562 9.222656 -1.898438 8.328125 -1.703125 C 7.441406 -1.503906 6.597656 -1.414062 5.796875 -1.4375 C 5.003906 -1.457031 4.3125 -1.550781 3.71875 -1.71875 C 3.632812 -1.75 3.566406 -1.71875 3.515625 -1.625 C 3.359375 -1.257812 3.113281 -0.960938 2.78125 -0.734375 C 2.457031 -0.515625 2.09375 -0.398438 1.6875 -0.390625 C 1.28125 -0.390625 0.90625 -0.488281 0.5625 -0.6875 C 0.09375 -0.90625 -0.238281 -1.25 -0.4375 -1.71875 C -0.632812 -2.1875 -0.65625 -2.671875 -0.5 -3.171875 C -0.382812 -3.597656 -0.191406 -4.003906 0.078125 -4.390625 C 0.347656 -4.785156 0.65625 -5.101562 1 -5.34375 C 1.34375 -5.59375 1.671875 -5.71875 1.984375 -5.71875 L 2 -5.71875 C 2.132812 -5.71875 2.25 -5.664062 2.34375 -5.5625 C 2.4375 -5.46875 2.484375 -5.351562 2.484375 -5.21875 C 2.484375 -5.09375 2.429688 -4.984375 2.328125 -4.890625 C 2.234375 -4.804688 2.117188 -4.765625 1.984375 -4.765625 C 1.867188 -4.765625 1.703125 -4.675781 1.484375 -4.5 C 1.273438 -4.320312 1.066406 -4.09375 0.859375 -3.8125 C 0.660156 -3.539062 0.515625 -3.242188 0.421875 -2.921875 C 0.328125 -2.648438 0.332031 -2.378906 0.4375 -2.109375 C 0.550781 -1.847656 0.738281 -1.664062 1 -1.5625 C 1.21875 -1.382812 1.460938 -1.3125 1.734375 -1.34375 C 2.003906 -1.375 2.226562 -1.492188 2.40625 -1.703125 C 2.46875 -1.773438 2.535156 -1.867188 2.609375 -1.984375 C 2.679688 -2.109375 2.664062 -2.207031 2.5625 -2.28125 C 2.207031 -2.5 1.988281 -2.8125 1.90625 -3.21875 C 1.820312 -3.625 1.890625 -4 2.109375 -4.34375 C 2.410156 -4.851562 2.679688 -5.140625 2.921875 -5.203125 C 3.171875 -5.265625 3.382812 -5.242188 3.5625 -5.140625 C 3.800781 -5.003906 3.953125 -4.734375 4.015625 -4.328125 C 4.078125 -3.929688 4.070312 -3.507812 4 -3.0625 C 3.976562 -2.945312 4.003906 -2.835938 4.078125 -2.734375 C 4.148438 -2.628906 4.238281 -2.5625 4.34375 -2.53125 C 5.382812 -2.363281 6.414062 -2.359375 7.4375 -2.515625 C 8.457031 -2.679688 9.425781 -2.992188 10.34375 -3.453125 C 11.257812 -3.910156 12.085938 -4.515625 12.828125 -5.265625 C 12.910156 -5.359375 13.023438 -5.40625 13.171875 -5.40625 C 13.304688 -5.40625 13.421875 -5.359375 13.515625 -5.265625 Z M 3.03125 -3.171875 C 3.082031 -3.460938 3.097656 -3.765625 3.078125 -4.078125 C 3.066406 -4.035156 3.046875 -4 3.015625 -3.96875 C 2.992188 -3.9375 2.96875 -3.90625 2.9375 -3.875 C 2.863281 -3.757812 2.832031 -3.632812 2.84375 -3.5 C 2.863281 -3.363281 2.925781 -3.253906 3.03125 -3.171875 Z M 3.03125 -3.171875 "/></g></g></g><g fill="#600000" fill-opacity="1"><g transform="translate(260.596718, 237.499125)"><g><path d="M 16.1875 -4.609375 C 16.28125 -4.523438 16.328125 -4.414062 16.328125 -4.28125 C 16.335938 -4.144531 16.296875 -4.023438 16.203125 -3.921875 C 16.179688 -3.890625 16.046875 -3.75 15.796875 -3.5 C 15.546875 -3.257812 15.210938 -2.96875 14.796875 -2.625 C 14.378906 -2.289062 13.890625 -1.953125 13.328125 -1.609375 C 12.773438 -1.273438 12.175781 -0.988281 11.53125 -0.75 C 10.894531 -0.519531 10.234375 -0.382812 9.546875 -0.34375 C 8.859375 -0.3125 8.171875 -0.4375 7.484375 -0.71875 C 6.515625 -1.195312 5.765625 -1.90625 5.234375 -2.84375 C 5.160156 -2.945312 5.054688 -3.101562 4.921875 -3.3125 C 4.785156 -3.519531 4.601562 -3.617188 4.375 -3.609375 C 4.257812 -3.609375 4.09375 -3.570312 3.875 -3.5 C 3.664062 -3.4375 3.390625 -3.300781 3.046875 -3.09375 C 2.703125 -2.894531 2.296875 -2.578125 1.828125 -2.140625 C 1.359375 -1.710938 0.8125 -1.132812 0.1875 -0.40625 C 0.0195312 -0.21875 -0.175781 -0.179688 -0.40625 -0.296875 C -0.625 -0.410156 -0.703125 -0.585938 -0.640625 -0.828125 L 0.28125 -4.90625 C 0.300781 -5.03125 0.367188 -5.128906 0.484375 -5.203125 C 0.609375 -5.273438 0.734375 -5.296875 0.859375 -5.265625 C 0.992188 -5.234375 1.09375 -5.160156 1.15625 -5.046875 C 1.226562 -4.929688 1.25 -4.8125 1.21875 -4.6875 L 0.796875 -2.84375 C 0.785156 -2.789062 0.8125 -2.742188 0.875 -2.703125 C 0.9375 -2.679688 0.988281 -2.691406 1.03125 -2.734375 C 2.40625 -4.035156 3.5625 -4.65625 4.5 -4.59375 C 4.894531 -4.570312 5.226562 -4.410156 5.5 -4.109375 C 5.707031 -3.890625 5.890625 -3.648438 6.046875 -3.390625 C 6.472656 -2.617188 7.066406 -2.03125 7.828125 -1.625 C 8.421875 -1.382812 9.019531 -1.285156 9.625 -1.328125 C 10.226562 -1.378906 10.8125 -1.515625 11.375 -1.734375 C 11.945312 -1.960938 12.476562 -2.234375 12.96875 -2.546875 C 13.46875 -2.859375 13.90625 -3.164062 14.28125 -3.46875 C 14.65625 -3.78125 14.945312 -4.039062 15.15625 -4.25 C 15.375 -4.46875 15.488281 -4.582031 15.5 -4.59375 C 15.582031 -4.6875 15.691406 -4.734375 15.828125 -4.734375 C 15.960938 -4.734375 16.082031 -4.691406 16.1875 -4.609375 Z M 16.1875 -4.609375 "/></g></g></g><g fill="#600000" fill-opacity="1"><g transform="translate(276.01314, 237.499125)"><g><path d="M 15.203125 -4.890625 C 15.285156 -4.785156 15.320312 -4.664062 15.3125 -4.53125 C 15.300781 -4.394531 15.242188 -4.285156 15.140625 -4.203125 C 15.140625 -4.203125 15.03125 -4.117188 14.8125 -3.953125 C 14.601562 -3.796875 14.316406 -3.601562 13.953125 -3.375 C 13.585938 -3.144531 13.160156 -2.925781 12.671875 -2.71875 C 12.179688 -2.507812 11.65625 -2.351562 11.09375 -2.25 C 10.53125 -2.144531 9.953125 -2.128906 9.359375 -2.203125 C 8.765625 -2.273438 8.175781 -2.484375 7.59375 -2.828125 C 7.375 -2.984375 7.164062 -2.96875 6.96875 -2.78125 C 6.613281 -2.4375 6.257812 -2.070312 5.90625 -1.6875 C 5.8125 -1.550781 5.789062 -1.394531 5.84375 -1.21875 C 6.101562 -0.5625 6.191406 0.148438 6.109375 0.921875 C 6.023438 1.691406 5.828125 2.460938 5.515625 3.234375 C 5.210938 4.003906 4.851562 4.722656 4.4375 5.390625 C 4.019531 6.054688 3.613281 6.609375 3.21875 7.046875 C 2.894531 7.410156 2.523438 7.757812 2.109375 8.09375 C 1.691406 8.425781 1.28125 8.59375 0.875 8.59375 C 0.78125 8.59375 0.6875 8.578125 0.59375 8.546875 C 0.0820312 8.441406 -0.222656 8.132812 -0.328125 7.625 C -0.441406 7.1875 -0.382812 6.625 -0.15625 5.9375 C 0.0625 5.257812 0.394531 4.515625 0.84375 3.703125 C 1.289062 2.890625 1.8125 2.0625 2.40625 1.21875 C 3 0.382812 3.601562 -0.410156 4.21875 -1.171875 C 4.300781 -1.273438 4.335938 -1.40625 4.328125 -1.5625 C 4.316406 -1.695312 4.253906 -1.804688 4.140625 -1.890625 C 3.554688 -2.285156 2.910156 -2.507812 2.203125 -2.5625 C 1.929688 -2.59375 1.785156 -2.742188 1.765625 -3.015625 C 1.742188 -3.285156 1.863281 -3.453125 2.125 -3.515625 C 2.644531 -3.640625 3.140625 -3.785156 3.609375 -3.953125 C 4.078125 -4.128906 4.46875 -4.300781 4.78125 -4.46875 C 5.101562 -4.632812 5.285156 -4.78125 5.328125 -4.90625 C 5.222656 -4.988281 5.101562 -5.0625 4.96875 -5.125 C 4.582031 -5.3125 4.125 -5.390625 3.59375 -5.359375 C 3.070312 -5.328125 2.554688 -5.21875 2.046875 -5.03125 C 1.535156 -4.851562 1.097656 -4.625 0.734375 -4.34375 C 0.640625 -4.257812 0.523438 -4.226562 0.390625 -4.25 C 0.253906 -4.269531 0.144531 -4.332031 0.0625 -4.4375 C -0.0195312 -4.550781 -0.0507812 -4.671875 -0.03125 -4.796875 C -0.0078125 -4.929688 0.046875 -5.039062 0.140625 -5.125 C 0.585938 -5.457031 1.117188 -5.734375 1.734375 -5.953125 C 2.359375 -6.179688 2.992188 -6.304688 3.640625 -6.328125 C 4.285156 -6.359375 4.867188 -6.25 5.390625 -6 C 6.046875 -5.675781 6.347656 -5.28125 6.296875 -4.8125 C 6.273438 -4.539062 6.128906 -4.285156 5.859375 -4.046875 C 5.597656 -3.816406 5.273438 -3.609375 4.890625 -3.421875 C 4.722656 -3.347656 4.632812 -3.21875 4.625 -3.03125 C 4.601562 -2.851562 4.664062 -2.707031 4.8125 -2.59375 L 4.828125 -2.59375 C 4.929688 -2.507812 5.046875 -2.472656 5.171875 -2.484375 C 5.304688 -2.492188 5.414062 -2.546875 5.5 -2.640625 C 5.863281 -3.054688 6.210938 -3.421875 6.546875 -3.734375 C 6.734375 -3.890625 6.941406 -3.972656 7.171875 -3.984375 C 7.410156 -4.003906 7.632812 -3.945312 7.84375 -3.8125 C 8.4375 -3.40625 9.046875 -3.179688 9.671875 -3.140625 C 10.296875 -3.097656 10.894531 -3.160156 11.46875 -3.328125 C 12.039062 -3.492188 12.550781 -3.695312 13 -3.9375 C 13.457031 -4.1875 13.820312 -4.410156 14.09375 -4.609375 C 14.363281 -4.816406 14.503906 -4.925781 14.515625 -4.9375 C 14.617188 -5.03125 14.738281 -5.066406 14.875 -5.046875 C 15.007812 -5.035156 15.117188 -4.984375 15.203125 -4.890625 Z M 2.5 6.40625 C 2.957031 5.882812 3.378906 5.296875 3.765625 4.640625 C 4.148438 3.992188 4.46875 3.320312 4.71875 2.625 C 4.96875 1.9375 5.109375 1.285156 5.140625 0.671875 C 5.160156 0.421875 5.050781 0.253906 4.8125 0.171875 C 4.59375 0.0976562 4.398438 0.148438 4.234375 0.328125 C 3.691406 1.046875 3.1875 1.765625 2.71875 2.484375 C 2.25 3.210938 1.84375 3.898438 1.5 4.546875 C 1.164062 5.191406 0.914062 5.757812 0.75 6.25 C 0.582031 6.75 0.535156 7.128906 0.609375 7.390625 C 0.617188 7.523438 0.691406 7.597656 0.828125 7.609375 C 0.929688 7.628906 1.125 7.550781 1.40625 7.375 C 1.695312 7.207031 2.0625 6.882812 2.5 6.40625 Z M 2.5 6.40625 "/></g></g></g><g fill="#600000" fill-opacity="1"><g transform="translate(290.356143, 237.499125)"><g><path d="M 15.453125 -4.28125 C 15.554688 -4.175781 15.601562 -4.054688 15.59375 -3.921875 C 15.59375 -3.785156 15.539062 -3.675781 15.4375 -3.59375 C 15.394531 -3.550781 15.207031 -3.394531 14.875 -3.125 C 14.550781 -2.851562 14.125 -2.53125 13.59375 -2.15625 C 13.0625 -1.789062 12.453125 -1.429688 11.765625 -1.078125 C 11.085938 -0.734375 10.375 -0.453125 9.625 -0.234375 C 8.882812 -0.0234375 8.140625 0.0507812 7.390625 0 C 6.648438 -0.0507812 5.945312 -0.296875 5.28125 -0.734375 C 5.019531 -0.910156 4.789062 -1.109375 4.59375 -1.328125 C 4.394531 -1.554688 4.222656 -1.785156 4.078125 -2.015625 C 3.921875 -2.234375 3.710938 -2.34375 3.453125 -2.34375 C 3.191406 -2.34375 2.988281 -2.234375 2.84375 -2.015625 C 2.613281 -1.617188 2.359375 -1.242188 2.078125 -0.890625 C 1.804688 -0.546875 1.523438 -0.257812 1.234375 -0.03125 C 0.941406 0.1875 0.660156 0.300781 0.390625 0.3125 C 0.378906 0.3125 0.375 0.3125 0.375 0.3125 C 0.375 0.3125 0.367188 0.3125 0.359375 0.3125 C 0.203125 0.3125 0.03125 0.265625 -0.15625 0.171875 C -0.34375 0.078125 -0.515625 -0.113281 -0.671875 -0.40625 C -0.847656 -0.757812 -0.921875 -1.171875 -0.890625 -1.640625 C -0.867188 -2.109375 -0.742188 -2.597656 -0.515625 -3.109375 C -0.316406 -3.546875 -0.03125 -3.992188 0.34375 -4.453125 C 0.726562 -4.910156 1.195312 -5.328125 1.75 -5.703125 C 2.3125 -6.078125 2.957031 -6.347656 3.6875 -6.515625 C 3.820312 -6.554688 3.941406 -6.539062 4.046875 -6.46875 C 4.160156 -6.40625 4.238281 -6.304688 4.28125 -6.171875 C 4.300781 -6.035156 4.273438 -5.910156 4.203125 -5.796875 C 4.140625 -5.679688 4.046875 -5.609375 3.921875 -5.578125 C 3.304688 -5.421875 2.757812 -5.1875 2.28125 -4.875 C 1.8125 -4.5625 1.414062 -4.210938 1.09375 -3.828125 C 0.78125 -3.453125 0.539062 -3.078125 0.375 -2.703125 C 0.207031 -2.347656 0.101562 -2.003906 0.0625 -1.671875 C 0.03125 -1.347656 0.0703125 -1.078125 0.1875 -0.859375 C 0.257812 -0.734375 0.320312 -0.671875 0.375 -0.671875 C 0.507812 -0.671875 0.691406 -0.789062 0.921875 -1.03125 C 1.148438 -1.269531 1.398438 -1.585938 1.671875 -1.984375 C 1.941406 -2.378906 2.207031 -2.816406 2.46875 -3.296875 C 2.738281 -3.773438 2.984375 -4.253906 3.203125 -4.734375 C 3.296875 -4.960938 3.46875 -5.054688 3.71875 -5.015625 C 3.957031 -4.984375 4.09375 -4.847656 4.125 -4.609375 C 4.125 -4.597656 4.148438 -4.476562 4.203125 -4.25 C 4.253906 -4.019531 4.335938 -3.738281 4.453125 -3.40625 C 4.578125 -3.070312 4.75 -2.734375 4.96875 -2.390625 C 5.1875 -2.054688 5.46875 -1.78125 5.8125 -1.5625 C 6.382812 -1.175781 6.992188 -0.972656 7.640625 -0.953125 C 8.296875 -0.929688 8.957031 -1.03125 9.625 -1.25 C 10.300781 -1.46875 10.941406 -1.738281 11.546875 -2.0625 C 12.160156 -2.394531 12.707031 -2.734375 13.1875 -3.078125 C 13.675781 -3.421875 14.0625 -3.707031 14.34375 -3.9375 C 14.632812 -4.175781 14.78125 -4.296875 14.78125 -4.296875 C 14.875 -4.390625 14.988281 -4.429688 15.125 -4.421875 C 15.257812 -4.421875 15.367188 -4.375 15.453125 -4.28125 Z M 2.9375 -7.328125 C 2.757812 -7.328125 2.617188 -7.410156 2.515625 -7.578125 C 2.453125 -7.679688 2.4375 -7.796875 2.46875 -7.921875 C 2.5 -8.054688 2.578125 -8.160156 2.703125 -8.234375 C 3.191406 -8.523438 3.507812 -8.800781 3.65625 -9.0625 C 3.8125 -9.332031 3.894531 -9.539062 3.90625 -9.6875 C 3.914062 -9.84375 3.894531 -9.972656 3.84375 -10.078125 C 3.789062 -10.191406 3.734375 -10.28125 3.671875 -10.34375 C 3.554688 -10.425781 3.492188 -10.535156 3.484375 -10.671875 C 3.472656 -10.804688 3.503906 -10.921875 3.578125 -11.015625 C 3.660156 -11.128906 3.769531 -11.191406 3.90625 -11.203125 C 4.039062 -11.222656 4.160156 -11.191406 4.265625 -11.109375 C 4.710938 -10.753906 4.921875 -10.253906 4.890625 -9.609375 C 4.878906 -9.453125 4.828125 -9.25 4.734375 -9 C 4.640625 -8.75 4.472656 -8.484375 4.234375 -8.203125 C 3.992188 -7.921875 3.644531 -7.648438 3.1875 -7.390625 C 3.113281 -7.347656 3.03125 -7.328125 2.9375 -7.328125 Z M 2.9375 -7.328125 "/></g></g></g><g fill="#600000" fill-opacity="1"><g transform="translate(305.30988, 237.499125)"><g><path d="M 12.734375 -4.765625 C 12.835938 -4.660156 12.890625 -4.539062 12.890625 -4.40625 C 12.890625 -4.269531 12.835938 -4.15625 12.734375 -4.0625 C 12.703125 -4.019531 12.519531 -3.847656 12.1875 -3.546875 C 11.863281 -3.253906 11.4375 -2.90625 10.90625 -2.5 C 10.375 -2.09375 9.769531 -1.6875 9.09375 -1.28125 C 8.414062 -0.875 7.703125 -0.535156 6.953125 -0.265625 C 6.203125 0.00390625 5.453125 0.140625 4.703125 0.140625 C 4.242188 0.140625 3.800781 0.0820312 3.375 -0.03125 C 2.570312 -0.269531 1.898438 -0.753906 1.359375 -1.484375 C 0.828125 -2.222656 0.4375 -3.171875 0.1875 -4.328125 C 0.15625 -4.390625 0.140625 -4.453125 0.140625 -4.515625 C 0.0351562 -5.117188 -0.0351562 -5.726562 -0.078125 -6.34375 C -0.109375 -7.144531 -0.0859375 -7.984375 -0.015625 -8.859375 C 0.046875 -9.742188 0.15625 -10.609375 0.3125 -11.453125 C 0.476562 -12.296875 0.6875 -13.078125 0.9375 -13.796875 C 1.1875 -14.523438 1.46875 -15.132812 1.78125 -15.625 C 2.101562 -16.125 2.453125 -16.457031 2.828125 -16.625 C 3.085938 -16.738281 3.359375 -16.757812 3.640625 -16.6875 C 3.929688 -16.613281 4.160156 -16.460938 4.328125 -16.234375 C 4.597656 -15.953125 4.742188 -15.539062 4.765625 -15 C 4.785156 -14.46875 4.71875 -13.851562 4.5625 -13.15625 C 4.414062 -12.46875 4.210938 -11.738281 3.953125 -10.96875 C 3.703125 -10.207031 3.421875 -9.457031 3.109375 -8.71875 C 2.796875 -7.976562 2.492188 -7.285156 2.203125 -6.640625 C 1.910156 -6.003906 1.65625 -5.46875 1.4375 -5.03125 C 1.238281 -4.625 1.203125 -4.210938 1.328125 -3.796875 C 1.515625 -3.148438 1.789062 -2.566406 2.15625 -2.046875 C 2.519531 -1.523438 3.015625 -1.164062 3.640625 -0.96875 C 4.222656 -0.789062 4.832031 -0.753906 5.46875 -0.859375 C 6.101562 -0.972656 6.734375 -1.175781 7.359375 -1.46875 C 7.984375 -1.757812 8.578125 -2.085938 9.140625 -2.453125 C 9.703125 -2.816406 10.195312 -3.171875 10.625 -3.515625 C 11.0625 -3.859375 11.40625 -4.144531 11.65625 -4.375 C 11.90625 -4.613281 12.035156 -4.742188 12.046875 -4.765625 C 12.148438 -4.847656 12.269531 -4.890625 12.40625 -4.890625 C 12.53125 -4.890625 12.640625 -4.847656 12.734375 -4.765625 Z M 0.96875 -6.625 C 0.976562 -6.539062 1.019531 -6.484375 1.09375 -6.453125 C 1.164062 -6.421875 1.226562 -6.441406 1.28125 -6.515625 C 1.4375 -6.773438 1.617188 -7.15625 1.828125 -7.65625 C 2.035156 -8.164062 2.25 -8.738281 2.46875 -9.375 C 2.695312 -10.019531 2.90625 -10.675781 3.09375 -11.34375 C 3.28125 -12.007812 3.429688 -12.640625 3.546875 -13.234375 C 3.671875 -13.828125 3.742188 -14.332031 3.765625 -14.75 C 3.796875 -15.175781 3.75 -15.453125 3.625 -15.578125 C 3.519531 -15.691406 3.414062 -15.75 3.3125 -15.75 C 3.28125 -15.75 3.242188 -15.742188 3.203125 -15.734375 C 3.015625 -15.648438 2.800781 -15.382812 2.5625 -14.9375 C 2.320312 -14.5 2.082031 -13.9375 1.84375 -13.25 C 1.613281 -12.570312 1.410156 -11.835938 1.234375 -11.046875 C 1.054688 -10.265625 0.9375 -9.484375 0.875 -8.703125 C 0.8125 -7.929688 0.84375 -7.238281 0.96875 -6.625 Z M 0.96875 -6.625 "/></g></g></g><g fill="#600000" fill-opacity="1"><g transform="translate(317.506045, 237.499125)"><g><path d="M 15.53125 -4.765625 C 15.625 -4.660156 15.660156 -4.539062 15.640625 -4.40625 C 15.628906 -4.269531 15.566406 -4.160156 15.453125 -4.078125 C 15.410156 -4.035156 15.191406 -3.867188 14.796875 -3.578125 C 14.398438 -3.285156 13.867188 -2.9375 13.203125 -2.53125 C 12.535156 -2.132812 11.765625 -1.738281 10.890625 -1.34375 C 10.015625 -0.957031 9.078125 -0.632812 8.078125 -0.375 C 7.078125 -0.113281 6.046875 0.015625 4.984375 0.015625 C 3.722656 0.0234375 2.515625 -0.203125 1.359375 -0.671875 C 0.710938 -0.929688 0.257812 -1.234375 0 -1.578125 C -0.257812 -1.921875 -0.40625 -2.257812 -0.4375 -2.59375 C -0.476562 -2.925781 -0.472656 -3.207031 -0.421875 -3.4375 C -0.316406 -3.894531 -0.101562 -4.335938 0.21875 -4.765625 C 0.539062 -5.191406 0.914062 -5.570312 1.34375 -5.90625 C 1.78125 -6.25 2.222656 -6.515625 2.671875 -6.703125 C 3.117188 -6.890625 3.53125 -6.96875 3.90625 -6.9375 C 4.238281 -6.9375 4.523438 -6.816406 4.765625 -6.578125 C 5.003906 -6.347656 5.140625 -6.0625 5.171875 -5.71875 C 5.179688 -5.519531 5.128906 -5.273438 5.015625 -4.984375 C 4.898438 -4.703125 4.617188 -4.410156 4.171875 -4.109375 C 3.117188 -3.453125 1.96875 -3.160156 0.71875 -3.234375 C 0.65625 -3.253906 0.601562 -3.242188 0.5625 -3.203125 C 0.507812 -3.160156 0.488281 -3.113281 0.5 -3.0625 C 0.488281 -2.945312 0.5 -2.800781 0.53125 -2.625 C 0.570312 -2.457031 0.675781 -2.28125 0.84375 -2.09375 C 1.019531 -1.90625 1.3125 -1.734375 1.71875 -1.578125 C 2.5625 -1.210938 3.421875 -1.003906 4.296875 -0.953125 C 5.179688 -0.910156 6.050781 -0.96875 6.90625 -1.125 C 7.757812 -1.289062 8.578125 -1.515625 9.359375 -1.796875 C 10.140625 -2.085938 10.859375 -2.40625 11.515625 -2.75 C 12.179688 -3.101562 12.757812 -3.429688 13.25 -3.734375 C 13.75 -4.046875 14.140625 -4.304688 14.421875 -4.515625 C 14.703125 -4.722656 14.84375 -4.828125 14.84375 -4.828125 C 14.957031 -4.921875 15.082031 -4.957031 15.21875 -4.9375 C 15.34375 -4.925781 15.445312 -4.867188 15.53125 -4.765625 Z M 1.140625 -4.375 C 1.003906 -4.1875 1.019531 -4.082031 1.1875 -4.0625 C 1.351562 -4.039062 1.59375 -4.078125 1.90625 -4.171875 C 2.21875 -4.265625 2.535156 -4.378906 2.859375 -4.515625 C 3.179688 -4.660156 3.441406 -4.796875 3.640625 -4.921875 C 4.023438 -5.179688 4.207031 -5.414062 4.1875 -5.625 C 4.175781 -5.757812 4.140625 -5.847656 4.078125 -5.890625 C 4.023438 -5.941406 3.945312 -5.972656 3.84375 -5.984375 C 3.457031 -6.003906 3.003906 -5.863281 2.484375 -5.5625 C 1.960938 -5.257812 1.515625 -4.863281 1.140625 -4.375 Z M 1.140625 -4.375 "/></g></g></g><g fill="#600000" fill-opacity="1"><g transform="translate(332.330226, 237.499125)"><g><path d="M 15.203125 -4.890625 C 15.285156 -4.785156 15.320312 -4.664062 15.3125 -4.53125 C 15.300781 -4.394531 15.242188 -4.285156 15.140625 -4.203125 C 15.140625 -4.203125 15.03125 -4.117188 14.8125 -3.953125 C 14.601562 -3.796875 14.316406 -3.601562 13.953125 -3.375 C 13.585938 -3.144531 13.160156 -2.925781 12.671875 -2.71875 C 12.179688 -2.507812 11.65625 -2.351562 11.09375 -2.25 C 10.53125 -2.144531 9.953125 -2.128906 9.359375 -2.203125 C 8.765625 -2.273438 8.175781 -2.484375 7.59375 -2.828125 C 7.375 -2.984375 7.164062 -2.96875 6.96875 -2.78125 C 6.613281 -2.4375 6.257812 -2.070312 5.90625 -1.6875 C 5.8125 -1.550781 5.789062 -1.394531 5.84375 -1.21875 C 6.101562 -0.5625 6.191406 0.148438 6.109375 0.921875 C 6.023438 1.691406 5.828125 2.460938 5.515625 3.234375 C 5.210938 4.003906 4.851562 4.722656 4.4375 5.390625 C 4.019531 6.054688 3.613281 6.609375 3.21875 7.046875 C 2.894531 7.410156 2.523438 7.757812 2.109375 8.09375 C 1.691406 8.425781 1.28125 8.59375 0.875 8.59375 C 0.78125 8.59375 0.6875 8.578125 0.59375 8.546875 C 0.0820312 8.441406 -0.222656 8.132812 -0.328125 7.625 C -0.441406 7.1875 -0.382812 6.625 -0.15625 5.9375 C 0.0625 5.257812 0.394531 4.515625 0.84375 3.703125 C 1.289062 2.890625 1.8125 2.0625 2.40625 1.21875 C 3 0.382812 3.601562 -0.410156 4.21875 -1.171875 C 4.300781 -1.273438 4.335938 -1.40625 4.328125 -1.5625 C 4.316406 -1.695312 4.253906 -1.804688 4.140625 -1.890625 C 3.554688 -2.285156 2.910156 -2.507812 2.203125 -2.5625 C 1.929688 -2.59375 1.785156 -2.742188 1.765625 -3.015625 C 1.742188 -3.285156 1.863281 -3.453125 2.125 -3.515625 C 2.644531 -3.640625 3.140625 -3.785156 3.609375 -3.953125 C 4.078125 -4.128906 4.46875 -4.300781 4.78125 -4.46875 C 5.101562 -4.632812 5.285156 -4.78125 5.328125 -4.90625 C 5.222656 -4.988281 5.101562 -5.0625 4.96875 -5.125 C 4.582031 -5.3125 4.125 -5.390625 3.59375 -5.359375 C 3.070312 -5.328125 2.554688 -5.21875 2.046875 -5.03125 C 1.535156 -4.851562 1.097656 -4.625 0.734375 -4.34375 C 0.640625 -4.257812 0.523438 -4.226562 0.390625 -4.25 C 0.253906 -4.269531 0.144531 -4.332031 0.0625 -4.4375 C -0.0195312 -4.550781 -0.0507812 -4.671875 -0.03125 -4.796875 C -0.0078125 -4.929688 0.046875 -5.039062 0.140625 -5.125 C 0.585938 -5.457031 1.117188 -5.734375 1.734375 -5.953125 C 2.359375 -6.179688 2.992188 -6.304688 3.640625 -6.328125 C 4.285156 -6.359375 4.867188 -6.25 5.390625 -6 C 6.046875 -5.675781 6.347656 -5.28125 6.296875 -4.8125 C 6.273438 -4.539062 6.128906 -4.285156 5.859375 -4.046875 C 5.597656 -3.816406 5.273438 -3.609375 4.890625 -3.421875 C 4.722656 -3.347656 4.632812 -3.21875 4.625 -3.03125 C 4.601562 -2.851562 4.664062 -2.707031 4.8125 -2.59375 L 4.828125 -2.59375 C 4.929688 -2.507812 5.046875 -2.472656 5.171875 -2.484375 C 5.304688 -2.492188 5.414062 -2.546875 5.5 -2.640625 C 5.863281 -3.054688 6.210938 -3.421875 6.546875 -3.734375 C 6.734375 -3.890625 6.941406 -3.972656 7.171875 -3.984375 C 7.410156 -4.003906 7.632812 -3.945312 7.84375 -3.8125 C 8.4375 -3.40625 9.046875 -3.179688 9.671875 -3.140625 C 10.296875 -3.097656 10.894531 -3.160156 11.46875 -3.328125 C 12.039062 -3.492188 12.550781 -3.695312 13 -3.9375 C 13.457031 -4.1875 13.820312 -4.410156 14.09375 -4.609375 C 14.363281 -4.816406 14.503906 -4.925781 14.515625 -4.9375 C 14.617188 -5.03125 14.738281 -5.066406 14.875 -5.046875 C 15.007812 -5.035156 15.117188 -4.984375 15.203125 -4.890625 Z M 2.5 6.40625 C 2.957031 5.882812 3.378906 5.296875 3.765625 4.640625 C 4.148438 3.992188 4.46875 3.320312 4.71875 2.625 C 4.96875 1.9375 5.109375 1.285156 5.140625 0.671875 C 5.160156 0.421875 5.050781 0.253906 4.8125 0.171875 C 4.59375 0.0976562 4.398438 0.148438 4.234375 0.328125 C 3.691406 1.046875 3.1875 1.765625 2.71875 2.484375 C 2.25 3.210938 1.84375 3.898438 1.5 4.546875 C 1.164062 5.191406 0.914062 5.757812 0.75 6.25 C 0.582031 6.75 0.535156 7.128906 0.609375 7.390625 C 0.617188 7.523438 0.691406 7.597656 0.828125 7.609375 C 0.929688 7.628906 1.125 7.550781 1.40625 7.375 C 1.695312 7.207031 2.0625 6.882812 2.5 6.40625 Z M 2.5 6.40625 "/></g></g></g></svg>