<?xml version="1.0" standalone="no"?>
<!DOCTYPE svg PUBLIC "-//W3C//DTD SVG 20010904//EN"
 "http://www.w3.org/TR/2001/REC-SVG-20010904/DTD/svg10.dtd">
<svg version="1.0" xmlns="http://www.w3.org/2000/svg"
 width="500.000000pt" height="500.000000pt" viewBox="0 0 500.000000 500.000000"
 preserveAspectRatio="xMidYMid meet">

<g transform="translate(0.000000,500.000000) scale(0.100000,-0.100000)"
fill="#000000" stroke="none">
<path d="M2100 3755 c-376 -60 -692 -276 -859 -587 -131 -243 -184 -512 -148
-743 8 -49 13 -92 11 -94 -10 -11 -343 -53 -469 -58 -165 -6 -257 4 -331 36
-39 17 -44 23 -34 36 6 8 9 23 5 35 -9 29 -55 23 -71 -9 -22 -43 0 -69 80 -94
65 -20 91 -22 291 -22 177 1 248 5 365 23 80 13 151 24 158 25 9 1 25 -33 46
-93 67 -201 179 -373 339 -526 153 -147 344 -259 522 -307 411 -111 766 -21
1059 269 179 177 316 390 383 595 l28 86 135 57 c396 165 714 267 970 311 120
21 156 20 163 -5 6 -25 38 -26 60 -2 21 23 21 36 2 52 -20 17 -213 -10 -390
-55 -215 -54 -541 -166 -844 -291 -46 -19 -85 -33 -88 -31 -2 3 1 35 8 73 18
105 6 318 -25 437 -67 259 -241 509 -457 657 -110 75 -177 107 -349 166 -211
71 -374 88 -560 59z m78 -22 c-10 -2 -26 -2 -35 0 -10 3 -2 5 17 5 19 0 27 -2
18 -5z m-75 -10 c-7 -2 -19 -2 -25 0 -7 3 -2 5 12 5 14 0 19 -2 13 -5z m-50
-10 c-7 -2 -19 -2 -25 0 -7 3 -2 5 12 5 14 0 19 -2 13 -5z m532 -23 c284 -64
560 -309 694 -615 23 -51 51 -130 63 -176 44 -168 25 -535 -31 -599 -19 -21
-247 -107 -385 -145 -269 -73 -364 3 -287 227 41 119 123 265 207 369 162 199
208 279 161 279 -29 0 -194 -209 -277 -350 -21 -36 -54 -80 -72 -98 -34 -32
-34 -32 -53 -12 -22 24 -72 26 -123 4 -157 -66 -321 -181 -459 -321 -56 -57
-105 -103 -108 -103 -15 0 2 45 70 180 41 82 75 161 75 175 0 13 -13 40 -30
58 -27 31 -28 36 -14 48 8 7 22 26 30 41 17 34 6 58 -27 58 -31 0 -90 -61 -92
-95 -2 -28 -8 -32 -107 -72 -202 -82 -642 -215 -657 -199 -13 13 -32 176 -33
277 -1 297 90 531 293 754 30 33 72 70 93 81 22 12 74 43 117 69 144 88 362
162 539 185 108 13 308 4 413 -20z m-578 14 c-3 -3 -12 -4 -19 -1 -8 3 -5 6 6
6 11 1 17 -2 13 -5z m-97 -29 c-46 -18 -64 -17 -25 0 17 8 37 14 45 14 8 0 -1
-7 -20 -14z m-131 -49 c-2 -2 -15 -9 -29 -15 -24 -11 -24 -11 -6 3 16 13 49
24 35 12z m1360 -238 c142 -141 253 -334 307 -533 25 -92 28 -115 28 -280 0
-111 -4 -190 -11 -206 -8 -18 -28 -32 -68 -46 -44 -17 -55 -18 -51 -7 35 90
61 297 51 404 -26 284 -137 516 -348 724 -105 104 -107 107 -48 66 34 -24 98
-79 140 -122z m-2032 -850 c-2 -13 -4 -3 -4 22 0 25 2 35 4 23 2 -13 2 -33 0
-45z m876 7 c15 -14 27 -33 27 -41 0 -8 -30 -76 -67 -150 -83 -170 -96 -253
-39 -254 4 0 65 55 135 123 110 108 206 187 319 266 40 28 40 24 1 -25 -17
-22 -40 -56 -51 -77 -22 -45 -27 -129 -8 -151 35 -43 101 -1 225 146 49 56 94
110 102 118 7 8 0 -23 -17 -68 -40 -110 -48 -179 -26 -235 31 -82 94 -114 202
-104 64 6 325 87 443 137 36 16 67 27 69 25 2 -2 -13 -36 -34 -76 -162 -324
-482 -571 -853 -661 -125 -30 -355 -30 -463 0 -325 89 -629 374 -748 701 -36
98 -36 99 -7 106 227 50 516 140 672 209 44 20 82 36 85 36 3 0 18 -11 33 -25z
m597 -20 c10 -12 4 -25 -38 -72 -75 -87 -178 -183 -196 -183 -37 0 14 110 86
186 45 48 97 83 124 84 6 0 17 -7 24 -15z m-1441 -185 c0 -13 -1 -13 -9 1 -5
8 -11 47 -14 85 l-6 69 14 -70 c8 -38 15 -77 15 -85z m51 -140 c87 -225 236
-413 434 -545 193 -128 351 -178 561 -178 322 0 629 133 870 377 100 101 166
192 230 320 l50 100 58 23 59 22 -7 -27 c-12 -52 -75 -196 -116 -268 -89 -155
-247 -341 -382 -449 -318 -255 -749 -289 -1147 -90 -239 120 -450 332 -572
575 -41 81 -88 214 -87 245 0 23 -4 33 49 -105z"/>
</g>
</svg>
