<?xml version="1.0" standalone="no"?>
<!DOCTYPE svg PUBLIC "-//W3C//DTD SVG 20010904//EN"
 "http://www.w3.org/TR/2001/REC-SVG-20010904/DTD/svg10.dtd">
<svg version="1.0" xmlns="http://www.w3.org/2000/svg"
 width="500.000000pt" height="500.000000pt" viewBox="0 0 500.000000 500.000000"
 preserveAspectRatio="xMidYMid meet">

<g transform="translate(0.000000,500.000000) scale(0.100000,-0.100000)"
fill="#000000" stroke="none">
<path d="M2425 3402 c4 -4 43 -7 88 -8 45 0 96 -4 112 -7 29 -7 29 -7 5 4 -26
12 -216 22 -205 11z"/>
<path d="M2375 3390 c3 -5 14 -10 23 -10 15 0 15 2 2 10 -20 13 -33 13 -25 0z"/>
<path d="M2340 3380 c8 -5 20 -10 25 -10 6 0 3 5 -5 10 -8 5 -19 10 -25 10 -5
0 -3 -5 5 -10z"/>
<path d="M2258 3354 c-16 -8 -28 -17 -28 -20 0 -2 8 0 19 5 10 6 20 9 22 7 2
-2 10 2 17 10 16 18 4 17 -30 -2z"/>
<path d="M2719 3349 c18 -11 38 -18 45 -16 6 2 -6 12 -28 21 -52 22 -58 20
-17 -5z"/>
<path d="M2148 3269 c-60 -58 -60 -59 -8 -14 79 69 85 75 77 75 -3 0 -35 -28
-69 -61z"/>
<path d="M2850 3276 c0 -2 8 -10 18 -17 15 -13 16 -12 3 4 -13 16 -21 21 -21
13z"/>
<path d="M2890 3226 c0 -2 8 -10 18 -17 15 -13 16 -12 3 4 -13 16 -21 21 -21
13z"/>
<path d="M2050 3149 c-7 -11 -10 -23 -7 -25 2 -2 9 7 15 21 14 30 7 33 -8 4z"/>
<path d="M2911 3150 c14 -31 19 -36 19 -24 0 6 -7 19 -16 30 -14 18 -14 18 -3
-6z"/>
<path d="M2957 3125 c9 -19 18 -33 21 -31 4 5 -26 66 -33 66 -3 0 3 -16 12
-35z"/>
<path d="M2769 3059 c-20 -24 -49 -64 -64 -89 -46 -72 -56 -82 -71 -69 -31 26
-129 -28 -231 -125 -35 -32 -63 -54 -63 -47 0 6 14 38 30 71 31 61 37 94 20
105 -6 4 -5 13 2 25 7 11 9 22 6 26 -12 11 -38 -5 -47 -28 -7 -18 -4 -25 10
-30 25 -10 24 -25 -6 -90 -24 -52 -32 -98 -17 -98 4 0 32 24 63 53 30 28 76
67 102 85 l47 34 -25 -38 c-26 -39 -32 -69 -15 -79 18 -11 44 6 93 61 26 30
47 52 47 50 0 -3 -5 -17 -11 -33 -22 -58 -9 -133 24 -133 5 0 3 8 -6 18 -10
10 -17 30 -17 44 0 40 37 128 75 178 73 95 96 131 93 141 -2 6 -20 -8 -39 -32z
m-139 -175 c0 -11 -64 -84 -87 -99 -21 -14 -23 -14 -23 3 0 26 68 102 91 102
10 0 19 -3 19 -6z"/>
<path d="M2001 3010 c-11 -52 -15 -97 -7 -89 7 6 26 132 22 137 -2 2 -9 -20
-15 -48z"/>
<path d="M2951 3044 c0 -11 3 -14 6 -6 3 7 2 16 -1 19 -3 4 -6 -2 -5 -13z"/>
<path d="M2962 2990 c0 -14 2 -19 5 -12 2 6 2 18 0 25 -3 6 -5 1 -5 -13z"/>
<path d="M3546 2965 c4 -9 11 -14 16 -13 15 5 11 23 -6 26 -11 2 -14 -2 -10
-13z"/>
<path d="M3473 2963 c9 -2 25 -2 35 0 9 3 1 5 -18 5 -19 0 -27 -2 -17 -5z"/>
<path d="M2260 2875 c-30 -13 -48 -24 -40 -24 8 0 38 11 65 24 65 30 46 30
-25 0z"/>
<path d="M3130 2860 c-8 -5 -10 -10 -5 -10 6 0 17 5 25 10 8 5 11 10 5 10 -5
0 -17 -5 -25 -10z"/>
<path d="M3080 2840 c-8 -5 -10 -10 -5 -10 6 0 17 5 25 10 8 5 11 10 5 10 -5
0 -17 -5 -25 -10z"/>
<path d="M2148 2833 c7 -3 16 -2 19 1 4 3 -2 6 -13 5 -11 0 -14 -3 -6 -6z"/>
<path d="M1614 2818 c-14 -22 73 -59 108 -45 7 3 0 6 -15 6 -36 1 -67 18 -67
36 0 18 -16 20 -26 3z"/>
<path d="M2108 2823 c7 -3 16 -2 19 1 4 3 -2 6 -13 5 -11 0 -14 -3 -6 -6z"/>
<path d="M2068 2813 c7 -3 16 -2 19 1 4 3 -2 6 -13 5 -11 0 -14 -3 -6 -6z"/>
<path d="M1985 2800 l-20 -9 20 1 c11 0 31 4 45 8 l25 8 -25 0 c-14 0 -34 -3
-45 -8z"/>
<path d="M2932 2784 c-7 -8 -8 -14 -3 -14 10 0 25 19 20 25 -2 1 -10 -3 -17
-11z"/>
<path d="M1913 2783 c9 -2 23 -2 30 0 6 3 -1 5 -18 5 -16 0 -22 -2 -12 -5z"/>
<path d="M1803 2773 c15 -2 39 -2 55 0 15 2 2 4 -28 4 -30 0 -43 -2 -27 -4z"/>
<path d="M2850 2750 c-8 -5 -10 -10 -5 -10 6 0 17 5 25 10 8 5 11 10 5 10 -5
0 -17 -5 -25 -10z"/>
<path d="M2765 2725 c-22 -8 -31 -13 -20 -13 11 0 36 6 55 13 45 17 18 17 -35
0z"/>
<path d="M2688 2703 c6 -2 18 -2 25 0 6 3 1 5 -13 5 -14 0 -19 -2 -12 -5z"/>
<path d="M2854 2638 l-19 -23 23 19 c21 18 27 26 19 26 -2 0 -12 -10 -23 -22z"/>
<path d="M2150 2538 c41 -45 50 -53 50 -45 0 2 -21 23 -47 47 l-48 45 45 -47z"/>
<path d="M2864 2558 l-19 -23 23 19 c12 11 22 21 22 23 0 8 -8 2 -26 -19z"/>
<path d="M2799 2493 l-34 -38 38 34 c20 19 37 36 37 38 0 8 -8 0 -41 -34z"/>
<path d="M2398 2393 c7 -3 16 -2 19 1 4 3 -2 6 -13 5 -11 0 -14 -3 -6 -6z"/>
<path d="M2618 2393 c7 -3 16 -2 19 1 4 3 -2 6 -13 5 -11 0 -14 -3 -6 -6z"/>
<path d="M2448 2383 c7 -3 16 -2 19 1 4 3 -2 6 -13 5 -11 0 -14 -3 -6 -6z"/>
<path d="M2553 2383 c9 -2 23 -2 30 0 6 3 -1 5 -18 5 -16 0 -22 -2 -12 -5z"/>
<path d="M808 2118 c16 -16 16 -145 0 -151 -7 -3 3 -6 22 -6 26 -1 31 2 22 11
-14 14 -16 54 -3 62 5 3 20 -12 35 -34 16 -24 34 -40 46 -40 17 0 15 4 -11 32
-33 37 -35 44 -14 64 38 39 6 74 -66 74 -34 0 -40 -3 -31 -12z m70 -7 c22 -13
11 -56 -15 -59 -19 -3 -23 1 -23 26 0 40 12 50 38 33z"/>
<path d="M1058 2118 c16 -16 16 -145 0 -151 -7 -3 17 -6 53 -6 59 -1 67 1 72
19 6 24 -8 27 -17 4 -4 -10 -16 -14 -38 -12 -29 3 -33 7 -36 36 -3 29 -1 32
22 32 14 0 26 -4 26 -10 0 -5 5 -10 10 -10 6 0 10 11 10 25 0 14 -4 25 -10 25
-5 0 -10 -5 -10 -11 0 -6 -10 -9 -22 -7 -17 2 -24 11 -26 31 -3 25 -1 27 32
27 19 0 36 -6 39 -12 2 -7 7 -10 11 -7 3 3 4 14 0 23 -5 12 -20 16 -67 16 -47
0 -58 -3 -49 -12z"/>
<path d="M1308 2118 c7 -7 12 -39 12 -73 0 -34 -5 -66 -12 -73 -9 -9 -1 -12
38 -12 71 0 110 46 69 80 -11 9 -13 16 -5 24 16 16 12 44 -9 56 -11 5 -39 10
-62 10 -34 0 -40 -3 -31 -12z m73 -8 c10 -6 19 -17 19 -25 0 -14 -29 -35 -49
-35 -12 0 -15 52 -4 63 8 9 11 9 34 -3z m19 -89 c7 -15 6 -24 -6 -36 -25 -25
-49 -15 -52 23 -3 28 0 32 22 32 15 0 30 -8 36 -19z"/>
<path d="M1555 2045 l0 -86 60 3 c51 3 60 6 64 23 3 19 3 19 -16 3 -11 -10
-32 -18 -46 -18 -24 0 -27 4 -27 35 0 30 3 35 24 35 13 0 27 -6 29 -12 3 -7 6
0 6 17 1 22 -2 26 -11 17 -7 -7 -20 -12 -30 -12 -13 0 -18 8 -18 30 0 26 4 30
28 30 15 0 33 -5 40 -12 9 -9 12 -7 12 10 0 20 -5 22 -57 22 l-58 0 0 -85z"/>
<path d="M1825 2106 c-36 -36 -35 -97 1 -125 43 -34 114 -26 114 12 0 21 0 21
-16 -1 -18 -26 -41 -28 -72 -6 -17 12 -22 25 -22 58 0 45 9 59 47 70 15 5 28
0 43 -16 l22 -23 -4 25 c-3 22 -9 25 -45 28 -35 3 -48 -2 -68 -22z"/>
<path d="M2102 2088 c-9 -24 -26 -62 -38 -85 l-21 -43 22 0 c16 0 21 6 21 23
-1 19 5 22 38 25 37 3 38 2 34 -22 -5 -23 -2 -26 23 -26 l28 0 -18 33 c-10 17
-27 56 -37 85 -10 28 -22 52 -27 52 -5 0 -16 -19 -25 -42z m38 -45 c0 -7 -9
-13 -20 -13 -22 0 -23 3 -13 39 6 23 7 23 20 6 7 -11 13 -25 13 -32z"/>
<path d="M2468 2055 c3 -58 1 -80 -9 -86 -9 -5 8 -9 44 -9 51 0 62 4 88 29 35
36 37 70 6 107 -19 22 -34 28 -78 32 l-54 4 3 -77z m106 33 c28 -40 18 -94
-20 -108 -43 -17 -54 -4 -54 66 l0 64 29 0 c20 0 35 -8 45 -22z"/>
<path d="M2745 2045 l0 -86 60 3 c51 3 60 6 64 23 3 19 3 19 -16 3 -11 -10
-32 -18 -46 -18 -24 0 -27 4 -27 35 0 30 3 35 24 35 13 0 27 -6 29 -12 3 -7 6
0 6 17 1 22 -2 26 -11 17 -7 -7 -20 -12 -30 -12 -13 0 -18 8 -18 30 0 26 4 30
28 30 15 0 33 -5 40 -12 9 -9 12 -7 12 10 0 20 -5 22 -57 22 l-58 0 0 -85z"/>
<path d="M2998 2054 c3 -57 1 -79 -9 -85 -9 -5 12 -9 54 -9 62 0 67 1 67 22 0
17 -3 19 -12 10 -7 -7 -25 -12 -40 -12 -28 0 -28 1 -28 63 0 36 5 68 12 75 9
9 5 12 -18 12 l-29 0 3 -76z"/>
<path d="M3250 2101 c-58 -57 -24 -141 57 -141 49 0 59 8 65 48 4 30 3 32 -26
31 -17 0 -25 -3 -18 -6 17 -7 15 -52 -3 -59 -22 -9 -64 22 -71 51 -9 38 4 75
30 85 31 11 64 3 70 -19 2 -9 4 -5 3 9 -2 21 -8 25 -40 28 -30 3 -43 -2 -67
-27z"/>
<path d="M3525 2058 c-15 -40 -32 -79 -38 -85 -7 -10 -2 -13 19 -13 19 0 25 3
16 8 -23 15 -2 42 33 42 32 0 52 -21 39 -41 -3 -5 6 -9 19 -9 l25 0 -36 85
c-19 47 -38 85 -42 85 -4 0 -19 -33 -35 -72z m33 -26 c-28 -5 -31 1 -16 33
l12 28 12 -29 c11 -26 10 -29 -8 -32z"/>
<path d="M3755 2045 l0 -85 43 0 c70 0 111 31 112 83 0 57 -40 87 -119 87
l-36 0 0 -85z m109 46 c27 -30 18 -92 -16 -108 -45 -22 -58 -9 -58 63 0 64 0
64 28 64 16 0 37 -9 46 -19z"/>
<path d="M4056 2104 c-54 -54 -18 -144 57 -144 58 0 103 71 76 122 -29 55 -89
65 -133 22z m89 -9 c31 -30 33 -77 5 -105 -26 -26 -44 -25 -70 2 -26 28 -26
82 0 108 26 26 36 25 65 -5z"/>
<path d="M1830 1730 c0 -41 9 -47 44 -34 34 13 12 74 -26 74 -14 0 -18 -8 -18
-40z m38 21 c19 -11 11 -45 -11 -49 -13 -3 -17 3 -17 27 0 32 6 37 28 22z"/>
<path d="M1940 1730 c0 -39 1 -40 33 -39 23 1 26 3 10 6 -26 5 -31 23 -8 23 8
0 15 5 15 10 0 6 -7 10 -15 10 -21 0 -19 18 3 23 10 3 6 5 -10 6 -26 1 -28 -2
-28 -39z"/>
<path d="M2050 1756 c-9 -12 -7 -17 9 -28 27 -17 27 -26 -1 -31 l-23 -4 23 -2
c28 -1 42 28 19 41 -21 11 -22 32 -1 24 8 -3 12 -2 9 4 -9 14 -21 12 -35 -4z"/>
<path d="M2148 1732 c-16 -40 -15 -41 3 -29 16 10 21 9 29 -3 17 -27 17 -5 1
34 l-17 39 -16 -41z"/>
<path d="M2251 1728 c1 -24 3 -35 6 -25 4 17 6 17 21 3 16 -13 17 -12 16 13
-1 34 -11 51 -30 51 -10 0 -14 -12 -13 -42z m29 11 c0 -5 -4 -9 -10 -9 -5 0
-10 7 -10 16 0 8 5 12 10 9 6 -3 10 -10 10 -16z"/>
<path d="M2350 1728 c1 -35 3 -40 11 -25 10 17 11 17 23 1 12 -15 13 -12 12
22 -1 32 -5 40 -23 42 -21 3 -23 -1 -23 -40z m40 11 c0 -5 -7 -9 -15 -9 -15 0
-20 12 -9 23 8 8 24 -1 24 -14z"/>
<path d="M2460 1755 c-26 -32 13 -81 48 -59 23 15 26 38 7 58 -20 20 -39 20
-55 1z m45 -26 c0 -28 -29 -38 -39 -13 -7 19 11 47 28 41 6 -2 11 -14 11 -28z"/>
<path d="M2582 1733 c-2 -41 -1 -43 26 -42 22 1 23 2 5 6 -17 3 -23 13 -26 41
l-4 37 -1 -42z"/>
<path d="M2682 1733 c-2 -41 -1 -43 26 -42 22 1 23 2 5 6 -17 3 -23 13 -26 41
l-4 37 -1 -42z"/>
<path d="M2880 1730 c0 -35 3 -40 23 -40 25 0 47 17 47 36 0 19 -29 44 -51 44
-16 0 -19 -7 -19 -40z m45 0 c0 -13 -6 -25 -12 -27 -9 -3 -13 6 -13 27 0 21 4
30 13 28 6 -3 12 -15 12 -28z"/>
<path d="M3006 1755 c-19 -20 -20 -26 -3 -49 26 -36 84 4 61 42 -15 23 -38 26
-58 7z m44 -10 c15 -18 6 -45 -15 -45 -18 0 -30 24 -21 45 7 19 20 19 36 0z"/>
<path d="M3120 1728 c1 -35 3 -40 11 -25 10 17 11 17 23 1 12 -15 13 -12 12
22 -1 32 -5 40 -23 42 -21 3 -23 -1 -23 -40z m40 11 c0 -5 -7 -9 -15 -9 -15 0
-20 12 -9 23 8 8 24 -1 24 -14z"/>
<path d="M2786 1732 c-21 -40 -20 -45 4 -30 17 11 22 10 30 -2 16 -25 12 10
-4 39 l-14 25 -16 -32z m24 -2 c0 -5 -5 -10 -11 -10 -5 0 -7 5 -4 10 3 6 8 10
11 10 2 0 4 -4 4 -10z"/>
</g>
</svg>
